# Blender v2.76 (sub 0) OBJ File: 'Litten.blend'
# www.blender.org
mtllib Litten.mtl
o Body_Sphere.001
v -0.885616 1.275678 0.209324
v -1.055266 1.323215 0.193978
v -1.253689 1.454541 0.146198
v -1.277426 1.582752 0.079084
v -0.853717 1.365517 0.727789
v -1.019123 1.406061 0.702213
v -1.172968 1.486111 0.626696
v -1.279020 1.636720 0.146129
v -0.792119 1.542468 0.698816
v -0.994788 1.585128 0.661953
v -1.162793 1.641911 0.555934
v -1.274845 1.712630 0.190927
v -0.756382 1.756041 0.635302
v -0.962888 1.781885 0.594195
v -1.143963 1.799215 0.381853
v -1.269753 1.796447 0.206657
v -0.734790 1.953563 0.520863
v -0.946978 1.961188 0.482886
v -1.134560 1.934963 0.352786
v -1.267627 1.875036 0.190927
v -0.728513 2.113015 0.381853
v -0.947749 2.105201 0.352786
v -1.135706 2.044602 0.270011
v -1.267127 1.937578 0.146129
v -0.736454 2.213474 0.206657
v -0.964716 2.194623 0.190926
v -1.144946 2.113930 0.146129
v -1.267755 1.977347 0.079084
v 0.920107 1.386314 0.079084
v 0.781512 1.251270 0.146129
v 0.557711 1.152043 0.203310
v 0.335808 1.117743 0.172574
v 0.931725 1.422241 0.146129
v 0.797137 1.318815 0.270011
v 0.662431 1.169549 0.357701
v 0.948489 1.477512 0.190926
v 0.818524 1.423927 0.352786
v 0.722987 1.391135 0.460938
v 0.971546 1.545716 0.206657
v 0.851595 1.551007 0.381853
v 0.680870 1.563706 0.541478
v 0.471195 1.586545 0.582584
v 1.002984 1.618877 0.190926
v 0.888120 1.683353 0.352786
v 0.725171 1.740413 0.475928
v 0.514295 1.784535 0.498915
v 1.038165 1.685891 0.146129
v 0.944485 1.809249 0.270011
v 0.764231 1.899491 0.352786
v 0.545389 1.955799 0.381853
v 1.066620 1.734415 0.079084
v 1.005556 1.905097 0.146129
v 0.824880 2.031028 0.190926
v 0.581706 2.085346 0.206657
v 0.187788 1.834123 0.498915
v -0.127577 1.879998 0.498915
v -0.428247 1.920172 0.520863
v 0.152441 1.631852 0.540022
v -0.155416 1.675224 0.540022
v -0.488039 1.716031 0.635302
v 0.090596 1.250380 0.420474
v 0.316656 1.404921 0.514410
v 0.574067 1.772029 0.503141
v 0.657997 1.926825 0.366896
v 0.227158 2.123717 0.206657
v -0.088207 2.169591 0.206657
v -0.400161 2.197476 0.206657
v -0.103935 2.053583 0.381853
v 0.215142 2.006471 0.381853
v 0.127240 1.426109 0.514056
v -0.179661 1.469309 0.499447
v -0.554269 1.504748 0.698991
v -0.227331 1.296113 0.383644
v -0.667154 1.328409 0.728161
v -0.594695 1.228091 0.208085
v -0.314373 1.184150 0.206658
v 0.088633 1.142124 0.243865
v -0.471334 1.328064 0.385390
v -0.304730 1.903668 0.498915
v -0.291525 1.693728 0.540022
v -0.347388 1.492384 0.498942
v 0.072139 0.859328 0.571717
v 0.323606 0.933908 0.638512
v 0.272322 1.051176 0.663947
v 0.565506 1.190648 0.524686
v 0.452597 1.239961 0.617508
v 0.597166 1.430152 0.584507
v 0.497218 1.434122 0.596594
v 0.169103 1.128096 0.596400
v 0.390183 1.314032 0.597258
v 0.392879 0.459835 0.482721
v 0.661885 0.530326 0.478194
v 0.623147 0.211478 0.454528
v 1.013878 0.061080 0.421117
v 0.684042 0.060164 0.420661
v 0.877610 0.302998 0.419038
v 1.018754 0.247694 0.425319
v 1.064780 0.154593 0.404430
v 0.001754 0.847363 0.343036
v 0.128389 0.656211 0.255664
v 0.397562 0.890626 0.311126
v 0.340026 0.392076 0.206661
v 0.706865 0.542113 0.202932
v 0.547201 0.199856 0.137324
v 1.013878 0.061080 0.166173
v 0.684042 0.060164 0.168113
v 0.909557 0.291190 0.190048
v 1.018754 0.245945 0.128452
v 1.064780 0.154593 0.131416
v 1.091031 0.138657 0.287711
v 1.036112 0.060658 0.292335
v 0.300527 0.435635 0.340816
v 0.093061 0.679322 0.451361
v 0.923560 0.288982 0.305904
v 1.041373 0.237344 0.293925
v 0.712731 0.543650 0.317478
v 0.680252 0.059669 0.299040
v -0.032712 0.820066 0.479892
v 0.429014 0.914912 0.476100
v 0.532614 0.187491 0.302677
v 0.530978 0.496023 0.520793
v 0.176990 0.898590 0.663541
v 0.747182 0.273513 0.476669
v 0.796800 0.203057 0.491393
v 1.016316 0.154593 0.450687
v 0.008035 1.033542 0.472292
v 0.087619 0.973033 0.623808
v 0.053981 1.068639 0.324733
v 0.615621 0.130028 0.145026
v 0.848960 0.060845 0.167143
v 0.782977 0.258453 0.121193
v 0.421642 0.467372 0.175014
v 0.189454 0.881092 0.245550
v 0.840201 0.150576 0.138221
v -1.072972 0.994067 0.571378
v -1.196335 0.992965 0.546655
v -1.120763 0.635573 0.173593
v -1.009741 0.635715 0.186987
v -1.166712 0.635247 0.521658
v -1.264604 0.989893 0.510582
v -0.950901 0.996876 0.572943
v -1.051572 0.635209 0.544893
v -1.315941 1.319083 0.581467
v -1.243259 0.984133 0.245119
v -0.803151 1.190383 0.680899
v -0.900218 0.984775 0.351275
v -1.055480 0.983438 0.218847
v -1.174202 0.984391 0.205237
v -1.102937 1.255658 0.659721
v -0.937152 1.220064 0.680899
v -0.876607 0.635637 0.301795
v -1.187594 0.635747 0.250259
v -1.225863 0.635214 0.436379
v -0.948005 0.634917 0.525784
v -0.860815 0.337500 0.618582
v -0.810514 0.343108 0.307531
v -1.008167 0.315376 0.618582
v -1.124340 0.299149 0.594913
v -1.217764 0.286135 0.527509
v -1.185715 0.290627 0.282128
v -0.971429 0.320621 0.221494
v -1.076601 0.305921 0.208684
v -0.825929 0.255760 0.639124
v -0.729314 0.261127 0.328073
v -0.856245 0.072651 0.618582
v -1.003069 0.056517 0.594913
v -1.184631 0.106260 0.527509
v -1.152582 0.110711 0.282128
v -0.761533 0.077754 0.307531
v -0.955092 0.063147 0.294721
v -1.247626 0.635654 0.343319
v -0.867628 0.635432 0.413790
v -0.756649 0.158904 0.628853
v -0.702636 0.152964 0.317802
v -1.286341 0.984929 0.378599
v -0.882389 0.989904 0.458027
v -0.814602 0.340398 0.463056
v -1.201740 0.288374 0.404819
v -0.735184 0.258443 0.483598
v -1.168607 0.108486 0.404819
v -0.978961 0.059832 0.444817
v -0.779132 0.075202 0.463056
v -0.687778 0.155934 0.473327
v -1.353484 1.488255 0.381136
v -1.384830 1.328610 0.387695
v -1.306479 1.231704 0.189606
v -0.366488 1.911920 0.509889
v -0.373553 1.704879 0.587662
v -0.424109 1.500119 0.599691
v -0.541037 1.329092 0.564369
v -0.408870 2.088551 0.381853
v -0.606522 1.231310 0.575167
v -0.717929 1.102050 0.344613
v -1.246124 1.681033 0.372718
v -1.316814 2.297848 0.103966
v -1.367345 2.187646 0.134417
v -1.409212 2.096341 0.082636
v -3.826264 3.448519 0.103965
v -3.876796 3.338317 0.134416
v -3.918663 3.247011 0.082636
v -1.827454 2.288119 0.082636
v -2.245695 2.479897 0.082636
v -2.663937 2.671676 0.082636
v -3.082179 2.863454 0.082636
v -3.500421 3.055233 0.082636
v -1.735055 2.489627 0.103966
v -2.153297 2.681405 0.103966
v -2.571539 2.873183 0.103965
v -2.989781 3.064962 0.103965
v -3.408022 3.256740 0.103965
v -3.458554 3.146538 0.134416
v -3.040313 2.954760 0.134416
v -2.622071 2.762981 0.134417
v -2.203829 2.571203 0.134417
v -1.785587 2.379425 0.134417
v -4.010931 3.593338 0.160235
v -4.148902 3.292440 0.168716
v -4.460651 4.010594 0.372052
v 0.442004 0.792654 0.582401
v 0.184398 0.719505 0.540568
v 0.505818 0.768647 0.273258
v 0.528315 0.784970 0.420582
v 0.300886 0.757692 0.613579
v 0.270720 0.736290 0.220863
v -4.084249 3.433441 0.143033
v -4.422576 3.582052 0.196123
v -4.769732 3.336529 0.391050
v -0.745277 2.246683 0.000000
v -0.996200 2.220641 0.000000
v -1.268287 1.991023 0.000000
v -1.315419 1.790715 0.000000
v -0.886376 1.236312 0.000000
v -1.050505 1.289475 0.000000
v -1.238051 1.396556 0.000000
v -1.274706 1.563344 0.000000
v -0.885616 1.275678 -0.209324
v -1.055266 1.323215 -0.193978
v -1.253689 1.454541 -0.146198
v -1.277426 1.582752 -0.079084
v -0.853717 1.365517 -0.727789
v -1.019123 1.406061 -0.702213
v -1.172968 1.486111 -0.626696
v -1.279020 1.636720 -0.146129
v -0.792119 1.542468 -0.698816
v -0.994788 1.585128 -0.661953
v -1.162793 1.641911 -0.555934
v -1.274845 1.712630 -0.190927
v -0.756382 1.756041 -0.635302
v -0.962888 1.781885 -0.594195
v -1.143963 1.799215 -0.381853
v -1.269753 1.796447 -0.206657
v -0.734790 1.953563 -0.520863
v -0.946978 1.961188 -0.482886
v -1.134560 1.934963 -0.352786
v -1.267627 1.875036 -0.190927
v -0.728513 2.113015 -0.381853
v -0.947749 2.105201 -0.352786
v -1.135706 2.044602 -0.270011
v -1.267127 1.937578 -0.146129
v -0.736454 2.213474 -0.206657
v -0.964716 2.194623 -0.190926
v -1.144946 2.113930 -0.146129
v -1.267755 1.977347 -0.079084
v 1.077580 1.752515 0.000000
v 1.033881 1.943015 0.000000
v 0.876257 2.081171 0.000000
v 0.621130 2.134299 0.000000
v 1.016587 1.549144 0.000000
v 0.914943 1.374303 0.000000
v 0.769507 1.229942 0.000000
v 0.569545 1.127372 0.000000
v 0.323334 1.096065 0.000000
v 0.920107 1.386314 -0.079084
v 0.781512 1.251270 -0.146129
v 0.557711 1.152043 -0.203310
v 0.335808 1.117743 -0.172574
v 0.931725 1.422241 -0.146129
v 0.797137 1.318815 -0.270011
v 0.662431 1.169549 -0.357701
v 0.948489 1.477512 -0.190926
v 0.818524 1.423927 -0.352786
v 0.722987 1.391135 -0.460938
v 0.971546 1.545716 -0.206657
v 0.851595 1.551007 -0.381853
v 0.680870 1.563706 -0.541478
v 0.471195 1.586545 -0.582584
v 1.002984 1.618877 -0.190926
v 0.888120 1.683353 -0.352786
v 0.725171 1.740413 -0.475928
v 0.514295 1.784535 -0.498915
v 1.038165 1.685891 -0.146129
v 0.944485 1.809249 -0.270011
v 0.764231 1.899491 -0.352786
v 0.545389 1.955799 -0.381853
v 1.066620 1.734415 -0.079084
v 1.005556 1.905097 -0.146129
v 0.824880 2.031028 -0.190926
v 0.581706 2.085346 -0.206657
v 0.187788 1.834123 -0.498915
v -0.127577 1.879998 -0.498915
v -0.428247 1.920172 -0.520863
v -0.619477 1.185300 0.000000
v -0.368268 1.148369 0.000000
v -0.110019 1.118773 0.000000
v 0.152441 1.631852 -0.540022
v -0.155416 1.675224 -0.540022
v -0.488039 1.716031 -0.635302
v 0.090596 1.250380 -0.420474
v 0.316656 1.404921 -0.514410
v 0.574067 1.772029 -0.503141
v 0.657997 1.926825 -0.366896
v -0.398409 2.234883 0.000000
v -0.082656 2.210275 0.000000
v 0.236449 2.163198 0.000000
v 0.227158 2.123717 -0.206657
v -0.088207 2.169591 -0.206657
v -0.400161 2.197476 -0.206657
v -0.103935 2.053583 -0.381853
v 0.215142 2.006471 -0.381853
v 0.127240 1.426109 -0.514056
v -0.179661 1.469309 -0.499447
v -0.554269 1.504748 -0.698991
v -0.227331 1.296113 -0.383644
v -0.667154 1.328409 -0.728161
v -0.594695 1.228091 -0.208085
v -0.314373 1.184150 -0.206658
v 0.088633 1.142124 -0.243865
v -0.471334 1.328064 -0.385390
v -0.304730 1.903668 -0.498915
v -0.291525 1.693728 -0.540022
v -0.347388 1.492384 -0.498942
v 0.072139 0.859328 -0.571717
v 0.323606 0.933908 -0.638512
v 0.272322 1.051176 -0.663947
v 0.565506 1.190648 -0.524686
v 0.452597 1.239961 -0.617508
v 0.597166 1.430152 -0.584507
v 0.497218 1.434122 -0.596594
v 0.169103 1.128096 -0.596400
v 0.390183 1.314032 -0.597258
v 0.392879 0.459835 -0.482721
v 0.661885 0.530326 -0.478194
v 0.623147 0.211478 -0.454528
v 1.013878 0.061080 -0.421117
v 0.684042 0.060164 -0.420661
v 0.877610 0.302998 -0.419038
v 1.018754 0.247694 -0.425319
v 1.064780 0.154593 -0.404430
v 0.001754 0.847363 -0.343036
v 0.128389 0.656211 -0.255664
v 0.397562 0.890626 -0.311126
v 0.340026 0.392076 -0.206661
v 0.706865 0.542113 -0.202932
v 0.547201 0.199856 -0.137324
v 1.013878 0.061080 -0.166173
v 0.684042 0.060164 -0.168113
v 0.909557 0.291190 -0.190048
v 1.018754 0.245945 -0.128452
v 1.064780 0.154593 -0.131416
v 1.091031 0.138657 -0.287711
v 1.036112 0.060658 -0.292335
v 0.300527 0.435635 -0.340816
v 0.093061 0.679322 -0.451361
v 0.923560 0.288982 -0.305904
v 1.041373 0.237344 -0.293925
v 0.712731 0.543650 -0.317478
v 0.680252 0.059669 -0.299040
v -0.032712 0.820066 -0.479892
v 0.429014 0.914912 -0.476100
v 0.532614 0.187491 -0.302677
v 0.530978 0.496023 -0.520793
v 0.176990 0.898590 -0.663541
v 0.747182 0.273513 -0.476669
v 0.796800 0.203057 -0.491393
v 1.016316 0.154593 -0.450687
v 0.008035 1.033542 -0.472292
v 0.087619 0.973033 -0.623808
v 0.053981 1.068639 -0.324733
v 0.615621 0.130028 -0.145026
v 0.848960 0.060845 -0.167143
v 0.782977 0.258453 -0.121193
v 0.421642 0.467372 -0.175014
v 0.189454 0.881092 -0.245550
v 0.840201 0.150576 -0.138221
v -1.072972 0.994067 -0.571378
v -1.196335 0.992965 -0.546655
v -1.120763 0.635573 -0.173593
v -1.009741 0.635715 -0.186987
v -1.166712 0.635247 -0.521658
v -1.264604 0.989893 -0.510582
v -0.950901 0.996876 -0.572943
v -1.051572 0.635209 -0.544893
v -1.315941 1.319083 -0.581467
v -1.243259 0.984133 -0.245119
v -0.803151 1.190383 -0.680899
v -0.900218 0.984775 -0.351275
v -1.055480 0.983438 -0.218847
v -1.174202 0.984391 -0.205237
v -1.102937 1.255658 -0.659721
v -0.937152 1.220064 -0.680899
v -0.876607 0.635637 -0.301795
v -1.187594 0.635747 -0.250259
v -1.225863 0.635214 -0.436379
v -0.948005 0.634917 -0.525784
v -0.860815 0.337500 -0.618582
v -0.810514 0.343108 -0.307531
v -1.008167 0.315376 -0.618582
v -1.124340 0.299149 -0.594913
v -1.217764 0.286135 -0.527509
v -1.185715 0.290627 -0.282128
v -0.971429 0.320621 -0.221494
v -1.076601 0.305921 -0.208684
v -0.825929 0.255760 -0.639124
v -0.729314 0.261127 -0.328073
v -0.856245 0.072651 -0.618582
v -1.003069 0.056517 -0.594913
v -1.184631 0.106260 -0.527509
v -1.152582 0.110711 -0.282128
v -0.761533 0.077754 -0.307531
v -0.955092 0.063147 -0.294721
v -1.247626 0.635654 -0.343319
v -0.867628 0.635432 -0.413790
v -0.756649 0.158904 -0.628853
v -0.702636 0.152964 -0.317802
v -1.286341 0.984929 -0.378599
v -0.882389 0.989904 -0.458027
v -0.814602 0.340398 -0.463056
v -1.201740 0.288374 -0.404819
v -0.735184 0.258443 -0.483598
v -1.168607 0.108486 -0.404819
v -0.978961 0.059832 -0.444817
v -0.779132 0.075202 -0.463056
v -0.687778 0.155934 -0.473327
v -1.353484 1.488255 -0.381136
v -1.384830 1.328610 -0.387695
v -1.306479 1.231704 -0.189606
v -0.366488 1.911920 -0.509889
v -0.373553 1.704879 -0.587662
v -0.424109 1.500119 -0.599691
v -0.541037 1.329092 -0.564369
v -0.408870 2.088551 -0.381853
v -0.606522 1.231310 -0.575167
v -0.717929 1.102050 -0.344613
v -1.246124 1.681033 -0.372718
v -1.304256 2.325234 0.000000
v -1.416033 2.081465 0.000000
v -1.316814 2.297848 -0.103966
v -1.367345 2.187646 -0.134417
v -1.409212 2.096341 -0.082636
v -3.826264 3.448519 -0.103965
v -3.876796 3.338317 -0.134416
v -3.918663 3.247011 -0.082636
v -3.925484 3.232135 0.000000
v -3.813707 3.475905 0.000000
v -1.827454 2.288119 -0.082636
v -2.245695 2.479897 -0.082636
v -2.663937 2.671676 -0.082636
v -3.082179 2.863454 -0.082636
v -3.500421 3.055233 -0.082636
v -3.507242 3.040357 0.000000
v -3.089000 2.848578 0.000000
v -2.670759 2.656800 0.000000
v -2.252517 2.465021 0.000000
v -1.834275 2.273243 0.000000
v -1.735055 2.489627 -0.103966
v -2.153297 2.681405 -0.103966
v -2.571539 2.873183 -0.103965
v -2.989781 3.064962 -0.103965
v -3.408022 3.256740 -0.103965
v -3.458554 3.146538 -0.134416
v -3.040313 2.954760 -0.134416
v -2.622071 2.762981 -0.134417
v -2.203829 2.571203 -0.134417
v -1.785587 2.379425 -0.134417
v -1.722498 2.517013 0.000000
v -2.140740 2.708791 0.000000
v -2.558981 2.900569 0.000000
v -2.977223 3.092348 0.000000
v -3.395465 3.284126 0.000000
v -4.010931 3.593338 -0.160235
v -4.148902 3.292440 -0.168716
v -4.126471 3.341362 0.000000
v -4.027626 3.556927 0.000000
v -4.460651 4.010594 -0.372052
v -4.329202 3.785687 0.000000
v 0.442004 0.792654 -0.582401
v 0.184398 0.719505 -0.540568
v 0.505818 0.768647 -0.273258
v 0.528315 0.784970 -0.420582
v 0.300886 0.757692 -0.613579
v 0.270720 0.736290 -0.220863
v -4.084249 3.433441 -0.143033
v -4.422576 3.582052 -0.196123
v -4.769732 3.336529 -0.391050
v -4.501550 3.409822 0.000000
vt 0.292840 0.407136
vt 0.287382 0.404863
vt 0.291325 0.399062
vt 0.294935 0.404937
vt 0.279398 0.403742
vt 0.272876 0.403215
vt 0.273932 0.394884
vt 0.280775 0.395701
vt 0.292756 0.195856
vt 0.308637 0.193783
vt 0.307672 0.123497
vt 0.292155 0.123497
vt 0.303038 0.299211
vt 0.293604 0.295522
vt 0.304345 0.289133
vt 0.304284 0.294355
vt 0.307574 0.396233
vt 0.302822 0.389309
vt 0.312707 0.385932
vt 0.313076 0.391607
vt 0.317410 0.382525
vt 0.318720 0.388180
vt 0.305408 0.398430
vt 0.301639 0.404586
vt 0.298167 0.403967
vt 0.300118 0.392569
vt 0.322080 0.380536
vt 0.324658 0.385710
vt 0.310484 0.400754
vt 0.304490 0.406239
vt 0.326904 0.392602
vt 0.320438 0.394897
vt 0.312081 0.400044
vt 0.313367 0.405096
vt 0.306257 0.408688
vt 0.328817 0.400251
vt 0.321662 0.402175
vt 0.313950 0.404977
vt 0.314417 0.410169
vt 0.306966 0.411473
vt 0.330120 0.407877
vt 0.322182 0.409296
vt 0.320989 0.416233
vt 0.313637 0.415507
vt 0.306647 0.414357
vt 0.356011 0.394236
vt 0.374990 0.389477
vt 0.376627 0.407775
vt 0.356865 0.411275
vt 0.454291 0.375257
vt 0.450957 0.359023
vt 0.473693 0.354295
vt 0.478065 0.368283
vt 0.448613 0.343264
vt 0.470061 0.340405
vt 0.455159 0.295599
vt 0.437825 0.272606
vt 0.475571 0.273285
vt 0.472974 0.288044
vt 0.299411 0.412364
vt 0.477327 0.318028
vt 0.486007 0.313348
vt 0.487110 0.328405
vt 0.463482 0.410435
vt 0.458180 0.392528
vt 0.485403 0.383341
vt 0.495576 0.398898
vt 0.269119 0.420485
vt 0.278879 0.424565
vt 0.259197 0.431115
vt 0.256643 0.424123
vt 0.378132 0.426730
vt 0.356103 0.429092
vt 0.305305 0.417015
vt 0.460900 0.328630
vt 0.448642 0.312255
vt 0.461491 0.313729
vt 0.467315 0.324079
vt 0.498721 0.284553
vt 0.512892 0.301523
vt 0.503818 0.310833
vt 0.487648 0.300003
vt 0.521421 0.318082
vt 0.515868 0.321837
vt 0.498504 0.320315
vt 0.512232 0.326625
vt 0.632160 0.148849
vt 0.623240 0.146760
vt 0.659045 0.099158
vt 0.667636 0.102414
vt 0.510571 0.331796
vt 0.496115 0.329385
vt 0.471999 0.331255
vt 0.510800 0.337168
vt 0.496682 0.338250
vt 0.482588 0.339128
vt 0.499651 0.347059
vt 0.486771 0.350253
vt 0.477410 0.352947
vt 0.513038 0.342568
vt 0.505915 0.355983
vt 0.492728 0.362483
vt 0.485705 0.365449
vt 0.517010 0.347531
vt 0.502269 0.374765
vt 0.522306 0.351375
vt 0.514866 0.363998
vt 0.526851 0.334784
vt 0.528774 0.353284
vt 0.525186 0.370201
vt 0.514970 0.385785
vt 0.295960 0.271781
vt 0.303678 0.267556
vt 0.305211 0.278048
vt 0.302054 0.279593
vt 0.395657 0.288335
vt 0.419178 0.289764
vt 0.423621 0.308416
vt 0.403344 0.307173
vt 0.327110 0.378760
vt 0.331464 0.383141
vt 0.410587 0.326168
vt 0.424589 0.326476
vt 0.432134 0.398694
vt 0.428640 0.380574
vt 0.448618 0.327707
vt 0.405528 0.403298
vt 0.408350 0.422288
vt 0.435862 0.417331
vt 0.335187 0.389623
vt 0.412997 0.345113
vt 0.424639 0.344547
vt 0.331228 0.353655
vt 0.337914 0.349749
vt 0.342966 0.358464
vt 0.336699 0.363116
vt 0.395223 0.269895
vt 0.416227 0.271234
vt 0.338986 0.397162
vt 0.410992 0.364414
vt 0.426048 0.362563
vt 0.336494 0.381971
vt 0.332692 0.375983
vt 0.337948 0.371870
vt 0.340627 0.380330
vt 0.322826 0.374791
vt 0.329665 0.373594
vt 0.339322 0.388760
vt 0.342617 0.388048
vt 0.341142 0.396611
vt 0.343336 0.396045
vt 0.470685 0.320899
vt 0.465398 0.313018
vt 0.477407 0.331365
vt 0.348341 0.271484
vt 0.340845 0.271821
vt 0.344365 0.264808
vt 0.345913 0.264569
vt 0.694187 0.055087
vt 0.703311 0.055698
vt 0.351660 0.275698
vt 0.353618 0.265667
vt 0.347550 0.263303
vt 0.345407 0.263464
vt 0.467185 0.310537
vt 0.344100 0.262177
vt 0.343211 0.263266
vt 0.341923 0.262087
vt 0.342555 0.260756
vt 0.351014 0.256459
vt 0.345744 0.260570
vt 0.342642 0.259087
vt 0.343372 0.252301
vt 0.684595 0.108843
vt 0.721323 0.056907
vt 0.711897 0.056273
vt 0.675719 0.105477
vt 0.336408 0.270250
vt 0.334359 0.266202
vt 0.338725 0.263583
vt 0.625780 0.138351
vt 0.604308 0.172199
vt 0.613228 0.174289
vt 0.647690 0.155380
vt 0.640553 0.150816
vt 0.328916 0.278984
vt 0.323265 0.267339
vt 0.329759 0.266366
vt 0.683742 0.054387
vt 0.649211 0.095432
vt 0.665741 0.088828
vt 0.342370 0.282036
vt 0.613029 0.144367
vt 0.463064 0.309851
vt 0.460062 0.307940
vt 0.462937 0.307459
vt 0.458584 0.302356
vt 0.463053 0.305719
vt 0.470220 0.308067
vt 0.470068 0.304289
vt 0.337163 0.260357
vt 0.332990 0.252301
vt 0.458671 0.302274
vt 0.465942 0.302847
vt 0.266340 0.200208
vt 0.280882 0.197605
vt 0.280555 0.123497
vt 0.266347 0.123497
vt 0.324307 0.191852
vt 0.322980 0.123497
vt 0.342834 0.189728
vt 0.341082 0.123497
vt 0.310346 0.049063
vt 0.295750 0.048350
vt 0.324679 0.049881
vt 0.307569 0.381366
vt 0.313953 0.378254
vt 0.328663 0.363718
vt 0.318870 0.376281
vt 0.281619 0.381517
vt 0.284352 0.380322
vt 0.288810 0.388999
vt 0.321499 0.360392
vt 0.320398 0.364238
vt 0.277481 0.382602
vt 0.308238 0.369513
vt 0.312686 0.368600
vt 0.317006 0.367830
vt 0.305553 0.369793
vt 0.314868 0.269213
vt 0.308070 0.282379
vt 0.284801 0.047882
vt 0.341379 0.051281
vt 0.271267 0.047523
vt 0.304877 0.284285
vt 0.302097 0.286697
vt 0.299498 0.282251
vt 0.310067 0.286128
vt 0.307499 0.287818
vt 0.319455 0.275260
vt 0.320224 0.288097
vt 0.313472 0.288986
vt 0.289699 0.288165
vt 0.291038 0.279176
vt 0.314288 0.299211
vt 0.310146 0.292788
vt 0.308940 0.289888
vt 0.306061 0.291136
vt 0.310686 0.287808
vt 0.300894 0.383158
vt 0.300739 0.369773
vt 0.288586 0.377245
vt 0.297129 0.387135
vt 0.319041 0.353173
vt 0.277865 0.434916
vt 0.260640 0.437226
vt 0.260263 0.408554
vt 0.262870 0.411970
vt 0.254414 0.417863
vt 0.252365 0.413440
vt 0.135153 0.457602
vt 0.136604 0.462104
vt 0.110619 0.471027
vt 0.109723 0.465758
vt 0.138617 0.468137
vt 0.140948 0.474810
vt 0.115512 0.484894
vt 0.112958 0.477632
vt 0.143030 0.480540
vt 0.118580 0.490918
vt 0.232446 0.433286
vt 0.230341 0.427260
vt 0.208981 0.442013
vt 0.206924 0.436031
vt 0.185572 0.450716
vt 0.183518 0.444735
vt 0.162157 0.459419
vt 0.160107 0.453434
vt 0.236655 0.445678
vt 0.234701 0.439867
vt 0.213217 0.454363
vt 0.211251 0.448630
vt 0.189811 0.463062
vt 0.187843 0.457333
vt 0.166409 0.471766
vt 0.164434 0.466037
vt 0.228769 0.422832
vt 0.205390 0.431574
vt 0.181988 0.440276
vt 0.158581 0.448971
vt 0.103120 0.489715
vt 0.107384 0.498172
vt 0.084175 0.506777
vt 0.090840 0.491847
vt 0.098108 0.476608
vt 0.096492 0.466809
vt 0.402763 0.384809
vt 0.341390 0.404870
vt 0.464768 0.309563
vt 0.594097 0.169807
vt 0.463653 0.308359
vt 0.621620 0.176255
vt 0.629912 0.181060
vt 0.101263 0.482323
vt 0.087809 0.481945
vt 0.073385 0.475431
vt 0.087606 0.487509
vt 0.354028 0.308617
vt 0.354636 0.317925
vt 0.363932 0.317925
vt 0.364540 0.308617
vt 0.352654 0.237927
vt 0.334619 0.237927
vt 0.334619 0.248865
vt 0.352654 0.248865
vt 0.319350 0.244210
vt 0.292507 0.244210
vt 0.292507 0.260489
vt 0.319350 0.260489
vt 0.319350 0.227769
vt 0.292507 0.227769
vt 0.292507 0.244048
vt 0.319350 0.244048
vt 0.319350 0.211328
vt 0.292507 0.211328
vt 0.292507 0.227607
vt 0.319350 0.227607
vt 0.364540 0.286523
vt 0.346505 0.286523
vt 0.346505 0.297461
vt 0.364540 0.297461
vt 0.364540 0.297570
vt 0.346505 0.297570
vt 0.346505 0.308508
vt 0.364540 0.308508
vt 0.347603 0.237818
vt 0.350827 0.222749
vt 0.334619 0.222749
vt 0.338308 0.237818
vn -0.981500 -0.191600 0.000000
vn -0.772400 -0.635100 0.000000
vn -0.896200 -0.293300 -0.332800
vn -0.985100 -0.166800 0.042400
vn -0.415800 -0.909500 0.000000
vn -0.233800 -0.972300 0.000000
vn -0.021700 -0.865200 -0.501000
vn -0.261100 -0.708600 -0.655500
vn -0.150500 -0.057300 -0.986900
vn 0.307900 -0.037000 -0.950700
vn 0.372900 0.051300 -0.926500
vn -0.275900 -0.042500 -0.960200
vn 0.437100 0.346700 0.829900
vn -0.114000 0.085000 0.989800
vn 0.161900 -0.707900 0.687500
vn 0.378000 0.279900 0.882500
vn -0.830200 0.433100 0.350900
vn -0.955700 0.276700 0.099800
vn -0.531200 0.280700 0.799400
vn -0.609600 0.457500 0.647300
vn -0.249100 0.070000 0.965900
vn -0.274200 0.350000 0.895700
vn -0.954600 0.210400 0.210800
vn -0.999600 0.009200 0.025700
vn -0.080900 -0.030500 0.996200
vn -0.039400 0.239100 0.970200
vn -0.714800 0.389900 0.580600
vn -0.909300 0.181000 0.374600
vn -0.033200 0.402400 0.914900
vn -0.341200 0.460100 0.819700
vn -0.679300 0.380800 0.627400
vn -0.893000 0.202400 0.401900
vn -0.026400 0.580300 0.814000
vn -0.353300 0.540300 0.763700
vn -0.629200 0.582300 0.514700
vn -0.887600 0.338400 0.312400
vn -0.024700 0.767800 0.640200
vn -0.293100 0.734300 0.612300
vn -0.139200 0.891700 0.430600
vn -0.440700 0.326700 0.836100
vn -0.910600 -0.048000 0.410500
vn -0.026600 0.940000 0.340200
vn 0.099200 0.694700 0.712400
vn 0.044000 0.406100 0.912700
vn 0.069500 0.458100 0.886200
vn 0.153200 0.673000 0.723500
vn -0.036300 0.039300 0.998600
vn -0.008400 0.181800 0.983300
vn -0.405100 -0.911700 -0.067600
vn -0.100300 -0.994900 0.000000
vn 0.033700 -0.999400 0.000000
vn 0.034600 -0.893600 -0.447500
vn -0.999400 0.034300 0.000000
vn 0.642600 -0.336300 0.688500
vn 0.744100 -0.633100 0.213300
vn 0.713200 -0.316600 0.625400
vn 0.117500 0.993000 0.000000
vn 0.116500 0.910700 0.396300
vn 0.162900 0.883200 0.439800
vn 0.161100 0.986900 0.000000
vn 0.195800 0.663000 0.722600
vn -0.113600 -0.122100 0.986000
vn -0.030600 0.999500 0.000000
vn 0.114100 0.993400 0.000000
vn -0.915900 -0.401400 0.000000
vn -0.327200 0.069600 0.942400
vn -0.583500 -0.180200 0.791900
vn -0.476100 0.395900 0.785200
vn -0.327500 0.288400 0.899700
vn 0.292800 -0.956200 0.000000
vn 0.570400 -0.821400 0.000000
vn 0.613200 -0.783100 0.103300
vn 0.485000 -0.862500 -0.144600
vn 0.784500 -0.620000 0.000000
vn 0.795300 -0.596300 0.109100
vn 0.727100 -0.615600 0.303900
vn 0.816500 -0.521900 0.246900
vn -0.028400 -0.337600 0.940800
vn -0.405900 -0.545900 0.732900
vn -0.407600 -0.533900 0.740800
vn 0.066700 -0.198000 0.977900
vn 0.840100 -0.412200 0.352500
vn 0.752900 -0.383500 0.534800
vn -0.001300 0.081600 0.996600
vn 0.864700 -0.290700 0.409400
vn 0.737800 -0.154000 0.657200
vn 0.481500 0.054600 0.874700
vn 0.717600 0.087300 0.690900
vn 0.442400 0.320900 0.837400
vn 0.175900 0.443700 0.878700
vn 0.884000 -0.195100 0.424700
vn 0.711600 0.277400 0.645400
vn 0.408500 0.557500 0.722700
vn 0.233300 0.650500 0.722800
vn 0.912600 -0.117300 0.391600
vn 0.407200 0.770400 0.490500
vn 0.964600 -0.033800 0.261600
vn 0.774300 0.446600 0.448400
vn 0.923100 -0.384600 0.000000
vn 0.999900 0.010900 0.000000
vn 0.838800 0.544400 0.000000
vn 0.459000 0.888400 0.000000
vn -0.981800 -0.135300 -0.133200
vn -0.783800 -0.189300 -0.591400
vn -0.585900 -0.602500 -0.541900
vn -0.721200 -0.683900 -0.110100
vn 0.059600 -0.994400 0.087200
vn -0.132500 -0.915700 0.379400
vn -0.124300 -0.686600 0.716300
vn 0.359700 -0.799700 0.480600
vn 0.333300 -0.290800 0.896800
vn 0.370700 -0.043800 0.927700
vn 0.327800 -0.470800 0.819100
vn -0.073400 -0.347300 0.934900
vn 0.109600 0.920200 0.375800
vn 0.090400 0.706000 0.702400
vn -0.086400 -0.326500 0.941200
vn 0.066200 0.931400 0.357900
vn 0.061900 0.998100 0.000000
vn 0.114300 0.993400 0.000000
vn 0.256800 0.280500 0.924800
vn 0.263900 0.009200 0.964500
vn -0.004800 0.010800 0.999900
vn -0.162400 -0.986700 0.000000
vn -0.136500 -0.990600 0.000000
vn 0.177100 0.524200 0.832900
vn 0.179000 0.417300 0.890900
vn 0.051600 0.381500 0.922900
vn 0.650500 -0.334500 0.681800
vn 0.693800 -0.540600 0.475700
vn 0.233300 -0.541200 0.807900
vn 0.638500 -0.673900 0.371600
vn 0.493000 0.100900 0.864200
vn 0.294100 0.464500 0.835300
vn 0.196100 0.026100 0.980200
vn 0.051900 0.096200 0.994000
vn 0.444700 -0.077900 0.892300
vn 0.046200 -0.032900 0.998400
vn -0.347600 -0.753100 0.558500
vn 0.397500 -0.744800 0.535900
vn 0.404800 -0.085600 0.910400
vn -0.437300 -0.443600 0.782200
vn 0.093200 0.009800 0.995600
vn 0.481900 0.625400 0.613800
vn 0.580800 0.607400 0.541900
vn 0.909600 -0.014100 0.415100
vn 0.458800 -0.123600 0.879800
vn 0.996600 -0.081400 0.009300
vn 0.523500 -0.851900 0.011700
vn 0.336000 -0.784200 -0.521600
vn 0.710800 -0.097300 -0.696600
vn 0.563400 0.825300 0.036200
vn 0.709600 0.704500 0.011200
vn 0.476200 0.556400 -0.680900
vn 0.390600 0.832100 -0.393700
vn 0.775800 0.625500 0.082900
vn 0.519700 0.564700 -0.641000
vn -0.397200 -0.915400 0.065100
vn -0.271100 -0.809300 -0.521100
vn -0.003900 -0.810200 -0.586100
vn -0.683400 -0.340300 -0.645900
vn -0.835100 -0.112400 -0.538400
vn -0.224300 0.019000 -0.974300
vn -0.089500 0.186100 -0.978400
vn 0.793800 0.599600 0.101700
vn 0.504800 0.571900 -0.646600
vn -0.705100 -0.688500 0.169700
vn -0.515900 -0.449400 -0.729300
vn -0.433100 -0.583400 -0.687000
vn -0.701900 -0.672800 0.233600
vn -0.632100 -0.441700 -0.636600
vn 0.027600 0.133900 -0.990600
vn -0.087300 0.138900 -0.986400
vn 0.602000 0.192200 0.775000
vn 0.622600 0.328800 0.710100
vn -0.701200 -0.641200 0.311700
vn -0.609500 0.136200 0.781000
vn -0.929700 0.307000 0.203200
vn -0.915500 -0.290700 0.278200
vn -0.836600 0.093500 -0.539700
vn 0.962000 -0.002000 0.272800
vn 0.614300 -0.011000 -0.789000
vn -0.008800 -0.217700 -0.976000
vn -0.978600 -0.199300 -0.050100
vn -0.709100 -0.173900 -0.683300
vn -0.799200 -0.104100 -0.591900
vn -0.981900 -0.109900 -0.154300
vn 0.336300 -0.400000 0.852600
vn -0.104200 -0.233900 0.966600
vn -0.073500 0.069700 0.994800
vn 0.525700 0.129600 0.840700
vn 0.795600 -0.298200 -0.527300
vn 0.858900 0.125200 -0.496500
vn 0.828600 -0.474700 0.296900
vn 0.970600 0.140400 0.195500
vn 0.284000 -0.094500 -0.954100
vn -0.186000 -0.193200 -0.963300
vn 0.771900 0.273900 -0.573700
vn -0.748700 0.022600 0.662400
vn -0.297500 -0.183500 0.936900
vn 0.520300 -0.787700 -0.329900
vn -0.118700 -0.309400 0.943500
vn -0.628000 -0.143600 -0.764800
vn -0.394700 -0.208500 0.894800
vn -0.485400 0.012300 0.874200
vn -0.804500 -0.214700 0.553700
vn -0.914900 -0.076100 0.396500
vn -0.041400 -0.808200 -0.587500
vn -0.893200 -0.084300 0.441700
vn -0.406700 0.008300 0.913500
vn 0.851600 0.482100 0.205800
vn -0.078100 -0.996600 -0.027000
vn -0.214800 -0.759100 0.614500
vn -0.721100 -0.590600 0.362300
vn 0.444200 -0.690100 -0.571400
vn 0.426900 -0.899500 0.093100
vn 0.770000 0.412000 -0.487100
vn 0.826200 0.523500 0.208100
vn 0.962700 -0.188600 0.193900
vn 0.652500 -0.171900 0.738000
vn 0.766000 -0.135700 -0.628300
vn -0.999500 -0.004800 -0.030000
vn 0.337700 0.908200 0.247000
vn -0.388600 -0.690900 0.609600
vn -0.490100 -0.836800 0.244200
vn -0.371300 -0.809800 0.454100
vn -0.333000 -0.726300 0.601300
vn -0.261900 -0.777600 0.571500
vn -0.349400 -0.823800 0.446400
vn -0.047800 -0.104300 0.993400
vn 0.289400 0.631100 0.719700
vn 0.366100 0.616500 0.697000
vn 0.056100 -0.102800 0.993100
vn 0.369700 0.806300 0.461700
vn 0.405400 0.796200 0.449100
vn 0.553500 0.513400 0.655800
vn 0.477100 0.726700 0.494200
vn -0.161600 0.949800 0.267700
vn -0.186400 0.866600 0.462800
vn 0.010300 -0.769100 0.639100
vn -0.238400 -0.829000 0.505800
vn 0.080700 0.740700 0.667000
vn -0.229000 -0.198100 0.953000
vn -0.499800 -0.409600 0.763100
vn 0.178600 -0.081800 0.980500
vn -0.772100 -0.468900 0.428900
vn -0.831700 -0.487500 0.265700
vn -0.214800 0.142900 0.966100
vn -0.985100 -0.166800 -0.042400
vn -0.896200 -0.293300 0.332800
vn -0.261100 -0.708600 0.655500
vn -0.021700 -0.865200 0.501000
vn -0.150500 -0.057300 0.986900
vn -0.275900 -0.042500 0.960200
vn 0.372900 0.051300 0.926500
vn 0.307900 -0.037000 0.950700
vn 0.437100 0.346700 -0.829900
vn 0.378000 0.279900 -0.882500
vn 0.161900 -0.707900 -0.687500
vn -0.114000 0.085000 -0.989800
vn -0.830200 0.433100 -0.350900
vn -0.609600 0.457500 -0.647300
vn -0.531200 0.280700 -0.799400
vn -0.955700 0.276700 -0.099800
vn -0.274200 0.350000 -0.895700
vn -0.249100 0.070000 -0.965900
vn -0.999600 0.009200 -0.025700
vn -0.954600 0.210400 -0.210800
vn -0.039400 0.239100 -0.970200
vn -0.080900 -0.030500 -0.996200
vn -0.909300 0.181000 -0.374600
vn -0.714800 0.389900 -0.580600
vn -0.341200 0.460100 -0.819700
vn -0.033200 0.402400 -0.914900
vn -0.893000 0.202400 -0.401900
vn -0.679300 0.380800 -0.627400
vn -0.353300 0.540300 -0.763700
vn -0.026400 0.580300 -0.814000
vn -0.887600 0.338400 -0.312400
vn -0.629200 0.582300 -0.514700
vn -0.293100 0.734300 -0.612300
vn -0.024700 0.767800 -0.640200
vn -0.440700 0.326700 -0.836100
vn -0.139200 0.891700 -0.430600
vn -0.910600 -0.048000 -0.410500
vn -0.026600 0.940000 -0.340200
vn 0.099200 0.694700 -0.712400
vn 0.153200 0.673000 -0.723500
vn 0.069500 0.458100 -0.886200
vn 0.044000 0.406100 -0.912700
vn -0.008400 0.181800 -0.983300
vn -0.036300 0.039300 -0.998600
vn -0.405100 -0.911700 0.067600
vn 0.034600 -0.893600 0.447500
vn 0.642600 -0.336300 -0.688500
vn 0.713200 -0.316600 -0.625400
vn 0.744100 -0.633100 -0.213300
vn 0.162900 0.883200 -0.439800
vn 0.116500 0.910700 -0.396300
vn -0.113600 -0.122100 -0.986000
vn 0.195800 0.663000 -0.722600
vn -0.327200 0.069600 -0.942400
vn -0.327500 0.288400 -0.899700
vn -0.476100 0.395900 -0.785200
vn -0.583500 -0.180200 -0.791900
vn 0.485000 -0.862500 0.144600
vn 0.613200 -0.783100 -0.103300
vn 0.795300 -0.596300 -0.109100
vn 0.727100 -0.615600 -0.303900
vn 0.816500 -0.521900 -0.246900
vn -0.028400 -0.337600 -0.940800
vn 0.066700 -0.198000 -0.977900
vn -0.407600 -0.533900 -0.740800
vn -0.405900 -0.545900 -0.732900
vn 0.752900 -0.383500 -0.534800
vn 0.840100 -0.412200 -0.352500
vn -0.001300 0.081600 -0.996600
vn 0.737800 -0.154000 -0.657200
vn 0.864700 -0.290700 -0.409400
vn 0.481500 0.054600 -0.874700
vn 0.442400 0.320900 -0.837400
vn 0.717600 0.087300 -0.690900
vn 0.175900 0.443700 -0.878700
vn 0.884000 -0.195100 -0.424700
vn 0.408500 0.557500 -0.722700
vn 0.711600 0.277400 -0.645400
vn 0.233300 0.650500 -0.722800
vn 0.912600 -0.117300 -0.391600
vn 0.407200 0.770400 -0.490500
vn 0.774300 0.446600 -0.448400
vn 0.964600 -0.033800 -0.261600
vn -0.981800 -0.135300 0.133200
vn -0.721200 -0.683900 0.110100
vn -0.585900 -0.602500 0.541900
vn -0.783800 -0.189300 0.591400
vn 0.059600 -0.994400 -0.087200
vn 0.359700 -0.799700 -0.480600
vn -0.124300 -0.686600 -0.716300
vn -0.132500 -0.915700 -0.379400
vn 0.370700 -0.043800 -0.927700
vn 0.333300 -0.290800 -0.896800
vn 0.327800 -0.470800 -0.819100
vn -0.073400 -0.347300 -0.934900
vn 0.109600 0.920200 -0.375800
vn 0.090400 0.706000 -0.702400
vn -0.086400 -0.326500 -0.941200
vn 0.066200 0.931400 -0.357900
vn 0.256800 0.280500 -0.924800
vn 0.263900 0.009200 -0.964500
vn -0.004800 0.010800 -0.999900
vn 0.177100 0.524200 -0.832900
vn 0.179000 0.417300 -0.890900
vn 0.051600 0.381500 -0.922900
vn 0.650500 -0.334500 -0.681800
vn 0.693800 -0.540600 -0.475700
vn 0.638500 -0.673900 -0.371600
vn 0.233300 -0.541200 -0.807900
vn 0.493000 0.100900 -0.864200
vn 0.294100 0.464500 -0.835300
vn 0.196100 0.026100 -0.980200
vn 0.051900 0.096200 -0.994000
vn 0.444700 -0.077900 -0.892300
vn 0.046200 -0.032900 -0.998400
vn 0.404800 -0.085600 -0.910400
vn 0.397500 -0.744800 -0.535900
vn -0.347600 -0.753100 -0.558500
vn 0.093200 0.009800 -0.995600
vn -0.437300 -0.443600 -0.782200
vn 0.481900 0.625400 -0.613800
vn 0.580800 0.607400 -0.541900
vn 0.909600 -0.014100 -0.415100
vn 0.458800 -0.123600 -0.879800
vn 0.996600 -0.081400 -0.009300
vn 0.710800 -0.097300 0.696600
vn 0.336000 -0.784200 0.521600
vn 0.523500 -0.851900 -0.011700
vn 0.563400 0.825300 -0.036200
vn 0.390600 0.832100 0.393700
vn 0.476200 0.556400 0.680900
vn 0.709600 0.704500 -0.011200
vn 0.775800 0.625500 -0.082900
vn 0.519700 0.564700 0.641000
vn -0.003900 -0.810200 0.586100
vn -0.271100 -0.809300 0.521100
vn -0.397200 -0.915400 -0.065100
vn -0.683400 -0.340300 0.645900
vn -0.089500 0.186100 0.978400
vn -0.224300 0.019000 0.974300
vn -0.835100 -0.112400 0.538400
vn 0.793800 0.599600 -0.101700
vn 0.504800 0.571900 0.646600
vn -0.433100 -0.583400 0.687000
vn -0.515900 -0.449400 0.729300
vn -0.705100 -0.688500 -0.169700
vn -0.632100 -0.441700 0.636600
vn -0.701900 -0.672800 -0.233600
vn 0.027600 0.133900 0.990600
vn -0.087300 0.138900 0.986400
vn 0.602000 0.192200 -0.775000
vn 0.622600 0.328800 -0.710100
vn -0.701200 -0.641200 -0.311700
vn -0.609500 0.136200 -0.781000
vn -0.915500 -0.290700 -0.278200
vn -0.929700 0.307000 -0.203200
vn -0.836600 0.093500 0.539700
vn 0.962000 -0.002000 -0.272800
vn 0.614300 -0.011000 0.789000
vn -0.008800 -0.217700 0.976000
vn -0.978600 -0.199300 0.050100
vn -0.981900 -0.109900 0.154300
vn -0.799200 -0.104100 0.591900
vn -0.709100 -0.173900 0.683300
vn 0.336300 -0.400000 -0.852600
vn 0.525700 0.129600 -0.840700
vn -0.073500 0.069700 -0.994800
vn -0.104200 -0.233900 -0.966600
vn 0.858900 0.125200 0.496500
vn 0.795600 -0.298200 0.527300
vn 0.828600 -0.474700 -0.296900
vn 0.970600 0.140400 -0.195500
vn -0.186000 -0.193200 0.963300
vn 0.284000 -0.094500 0.954100
vn 0.771900 0.273900 0.573700
vn -0.297500 -0.183500 -0.936900
vn -0.748700 0.022600 -0.662400
vn 0.520300 -0.787700 0.329900
vn -0.118700 -0.309400 -0.943500
vn -0.628000 -0.143600 0.764800
vn -0.394700 -0.208500 -0.894800
vn -0.485400 0.012300 -0.874200
vn -0.914900 -0.076100 -0.396500
vn -0.804500 -0.214700 -0.553700
vn -0.041400 -0.808200 0.587500
vn -0.406700 0.008300 -0.913500
vn -0.893200 -0.084300 -0.441700
vn 0.851600 0.482100 -0.205800
vn -0.721100 -0.590600 -0.362300
vn -0.214800 -0.759100 -0.614500
vn -0.078100 -0.996600 0.027000
vn 0.426900 -0.899500 -0.093100
vn 0.444200 -0.690100 0.571400
vn 0.770000 0.412000 0.487100
vn 0.826200 0.523500 -0.208100
vn 0.652500 -0.171900 -0.738000
vn 0.962700 -0.188600 -0.193900
vn 0.766000 -0.135700 0.628300
vn -0.999500 -0.004800 0.030000
vn -0.388600 -0.690900 -0.609600
vn -0.261900 -0.777600 -0.571500
vn -0.333000 -0.726300 -0.601300
vn -0.047800 -0.104300 -0.993400
vn 0.056100 -0.102800 -0.993100
vn 0.366100 0.616500 -0.697000
vn 0.289400 0.631100 -0.719700
vn 0.553500 0.513400 -0.655800
vn -0.186400 0.866600 -0.462800
vn 0.010300 -0.769100 -0.639100
vn 0.080700 0.740700 -0.667000
vn -0.229000 -0.198100 -0.953000
vn -0.499800 -0.409600 -0.763100
vn 0.178600 -0.081800 -0.980500
vn -0.772100 -0.468900 -0.428900
vn -0.214800 0.142900 -0.966100
usemtl Material
s 1
f 235/1/1 234/2/2 3/3/3 4/4/4
f 233/5/5 232/6/6 1/7/7 2/8/8
f 234/2/2 233/5/5 2/8/8 3/3/3
f 148/9/9 147/10/10 138/11/11 137/12/12
f 155/13/13 157/14/14 165/15/15 163/16/16
f 194/17/17 184/18/18 7/19/19 11/20/20
f 7/19/19 6/21/21 10/22/22 11/20/20
f 194/23/17 12/24/23 8/25/24 184/26/18
f 6/21/21 5/27/25 9/28/26 10/22/22
f 12/24/23 194/23/17 15/29/27 16/30/28
f 10/22/22 9/28/26 13/31/29 14/32/30
f 11/20/20 10/22/22 14/32/30 15/33/27
f 16/30/28 15/29/27 19/34/31 20/35/32
f 14/32/30 13/31/29 17/36/33 18/37/34
f 15/33/27 14/32/30 18/37/34 19/38/31
f 194/17/17 11/20/20 15/33/27
f 20/35/32 19/34/31 23/39/35 24/40/36
f 18/37/34 17/36/33 21/41/37 22/42/38
f 23/39/35 22/42/38 26/43/39 27/44/40
f 24/40/36 23/39/35 27/44/40 28/45/41
f 22/46/38 21/47/37 25/48/42 26/49/39
f 69/50/43 55/51/44 46/52/45 50/53/46
f 55/51/44 58/54/47 42/55/48 46/52/45
f 77/56/49 304/57/50 272/58/51 32/59/52
f 231/60/53 235/1/1 4/4/4
f 85/61/54 35/62/55 38/63/56
f 231/60/53 4/4/4 8/25/24
f 231/60/53 8/25/24 12/24/23
f 314/64/57 65/65/58 54/66/59 267/67/60
f 231/60/53 12/24/23 16/30/28
f 231/60/53 16/30/28 20/35/32
f 231/60/53 20/35/32 24/40/36
f 231/60/53 24/40/36 28/45/41
f 27/68/40 26/69/39 195/70/61 196/71/62
f 26/49/39 25/48/42 228/72/63 229/73/64
f 65/65/58 69/50/43 50/53/46 54/66/59
f 231/60/53 28/45/41 230/74/65
f 62/75/66 61/76/67 89/77/68 90/78/69
f 271/79/70 270/80/71 30/81/72 31/82/73
f 272/58/51 271/79/70 31/82/73 32/59/52
f 270/80/71 269/83/74 29/84/75 30/81/72
f 31/82/73 30/81/72 34/85/76 35/62/55
f 30/81/72 29/84/75 33/86/77 34/85/76
f 223/87/78 220/88/79 91/89/80 121/90/81
f 34/85/76 33/86/77 36/91/82 37/92/83
f 35/62/55 34/85/76 37/92/83 38/63/56
f 42/55/48 62/75/66 90/78/69 88/93/84
f 37/92/83 36/91/82 39/94/85 40/95/86
f 38/63/56 37/92/83 40/95/86 41/96/87
f 41/96/87 40/95/86 44/97/88 45/98/89
f 42/55/48 41/96/87 45/98/89 63/99/90
f 40/95/86 39/94/85 43/100/91 44/97/88
f 45/98/89 44/97/88 48/101/92 49/102/93
f 63/99/90 45/98/89 49/102/93 64/103/94
f 44/97/88 43/100/91 47/104/95 48/101/92
f 50/53/46 64/103/94 49/102/93 53/105/96 54/66/59
f 48/101/92 47/104/95 51/106/97 52/107/98
f 49/102/93 48/101/92 52/107/98 53/105/96
f 269/83/74 268/108/99 29/84/75
f 29/84/75 268/108/99 33/86/77
f 33/86/77 268/108/99 36/91/82
f 36/91/82 268/108/99 39/94/85
f 39/94/85 268/108/99 43/100/91
f 43/100/91 268/108/99 47/104/95
f 47/104/95 268/108/99 51/106/97
f 52/107/98 51/106/97 264/109/100 265/110/101
f 53/105/96 52/107/98 265/110/101 266/111/102
f 51/106/97 268/108/99 264/109/100
f 54/66/59 53/105/96 266/111/102 267/67/60
f 178/112/103 160/113/104 168/114/105 180/115/106
f 75/116/107 76/117/108 73/118/109 78/119/110
f 9/28/26 5/27/25 74/120/111 72/121/112
f 81/122/113 78/119/110 73/118/109 71/123/114
f 66/124/115 68/125/116 69/50/43 65/65/58
f 46/52/45 42/55/48 63/99/90
f 58/54/47 70/126/117 62/75/66 42/55/48
f 46/52/45 63/99/90 64/103/94 50/53/46
f 228/72/63 25/48/42 67/127/118 312/128/119
f 312/128/119 67/127/118 66/124/115 313/129/120
f 313/129/120 66/124/115 65/65/58 314/64/57
f 13/31/29 9/28/26 72/121/112 60/130/121
f 80/131/122 81/122/113 71/123/114 59/132/123
f 59/132/123 71/123/114 70/126/117 58/54/47
f 1/133/7 232/134/6 302/135/124 75/136/107
f 75/116/107 302/137/124 303/138/125 76/117/108
f 76/117/108 303/138/125 304/57/50 77/56/49
f 17/36/33 13/31/29 60/130/121 57/139/126
f 79/140/127 80/131/122 59/132/123 56/141/128
f 56/141/128 59/132/123 58/54/47 55/51/44
f 68/125/116 56/141/128 55/51/44 69/50/43
f 189/142/129 190/143/130 78/144/110 81/145/113
f 74/120/111 145/146/131 192/147/132 190/143/130
f 188/148/133 189/142/129 81/145/113 80/149/122
f 187/150/134 188/148/133 80/149/122 79/151/127
f 88/93/84 90/78/69 86/152/135
f 90/78/69 89/77/68 84/153/136 86/152/135
f 86/152/135 85/61/54 87/154/137 88/93/84
f 41/96/87 87/154/137 38/63/56
f 41/96/87 42/55/48 88/93/84 87/154/137
f 73/118/109 76/117/108 77/56/49 61/76/67
f 71/123/114 73/118/109 61/76/67 70/126/117
f 70/126/117 61/76/67 62/75/66
f 124/155/138 95/156/139 94/157/140 125/158/141
f 121/90/81 91/89/80 93/159/142 123/160/143
f 123/161/143 124/155/138 96/162/144
f 97/163/145 125/158/141 94/157/140 98/164/146
f 84/153/136 83/165/147 85/61/54 86/152/135
f 85/61/54 83/165/147 35/62/55
f 110/166/148 111/167/149 105/168/150 109/169/151
f 114/170/152 115/171/153 108/172/154 107/173/155
f 116/174/156 114/175/152 107/176/155 103/177/157
f 111/167/149 117/178/158 106/179/159 130/180/160 105/168/150
f 115/171/153 110/166/148 109/169/151 108/172/154
f 100/181/161 99/182/162 133/183/163 224/87/164
f 222/184/165 116/174/156 103/177/157 221/185/166
f 117/178/158 120/186/167 104/187/168 129/188/169 106/179/159
f 120/189/167 112/190/170 102/191/171 104/159/168
f 131/160/172 104/159/168 102/191/171 132/90/173
f 93/159/142 91/89/80 112/190/170 120/189/167
f 95/156/139 93/192/142 120/186/167 117/178/158
f 219/185/174 92/177/175 116/174/156 222/184/165
f 97/163/145 98/164/146 110/166/148 115/171/153
f 94/157/140 95/156/139 117/178/158 111/167/149
f 92/177/175 96/176/144 114/175/152 116/174/156
f 96/162/144 97/163/145 115/171/153 114/170/152
f 91/89/80 220/88/79 113/193/176 112/190/170
f 98/164/146 94/157/140 111/167/149 110/166/148
f 127/194/177 126/195/178 118/196/179
f 128/197/180 99/198/162 118/196/179 126/195/178
f 83/165/147 119/199/181 35/62/55
f 35/62/55 119/199/181 101/200/182 31/82/73
f 92/177/175 121/90/81 123/160/143 96/176/144
f 219/185/174 223/87/78 121/90/81 92/177/175
f 96/162/144 124/155/138 97/163/145
f 95/156/139 124/155/138 123/161/143 93/192/142
f 77/56/49 128/197/180 126/195/178 61/76/67
f 89/77/68 61/76/67 126/195/178 127/194/177
f 134/201/183 129/188/169 104/187/168 131/202/172
f 130/180/160 106/179/159 129/188/169 134/201/183
f 32/59/52 128/203/180 77/56/49
f 105/168/150 130/180/160 134/201/183 109/169/151
f 109/169/151 134/201/183 131/202/172 108/172/154
f 108/172/154 131/202/172 107/173/155
f 99/198/162 128/203/180 133/204/163
f 128/203/180 32/59/52 133/204/163
f 31/82/73 101/200/182 133/204/163 32/59/52
f 175/205/184 144/206/185 152/207/186 171/208/187
f 141/209/188 135/10/189 142/11/190 154/210/191
f 147/10/10 146/209/192 151/210/193 138/11/11
f 176/211/194 141/209/188 154/210/191 172/212/195
f 144/206/185 148/9/9 137/12/12 152/207/186
f 137/12/12 138/11/11 161/213/196 162/214/197
f 138/11/11 151/210/193 156/215/198 161/213/196
f 154/210/191 142/11/190 157/213/14 155/215/13
f 6/21/21 7/19/19 143/216/199 149/217/200
f 75/136/107 193/218/201 1/133/7
f 74/120/111 5/27/25 150/219/202 145/146/131
f 3/3/3 2/8/8 148/220/9 144/221/185 186/222/203
f 5/27/25 6/21/21 149/217/200 150/219/202
f 146/223/192 193/218/201 192/147/132 176/224/194
f 2/8/8 1/7/7 147/225/10 148/220/9
f 150/219/202 149/217/200 136/226/204 135/227/189
f 135/10/189 136/9/204 139/12/205 142/11/190
f 145/146/131 150/219/202 135/227/189 141/228/188
f 136/9/204 140/206/206 153/207/207 139/12/205
f 149/217/200 143/216/199 140/229/206 136/226/204
f 160/113/104 162/230/197 170/231/208 168/114/105
f 139/12/205 153/207/207 159/232/209 158/214/210
f 172/212/195 154/210/191 155/215/13 177/233/211
f 142/11/190 139/12/205 158/214/210 157/213/14
f 152/207/186 137/12/12 162/214/197 160/232/104
f 171/208/187 152/207/186 160/232/104 178/234/103
f 180/115/106 181/235/212 166/236/213 167/237/214
f 170/231/208 169/238/215 182/239/216 181/235/212
f 181/235/212 182/239/216 165/15/15 166/236/213
f 161/240/196 156/241/198 164/242/217 169/238/215
f 162/230/197 161/240/196 169/238/215 170/231/208
f 158/243/210 159/244/209 167/237/214 166/236/213
f 177/245/211 155/13/13 163/16/16 179/246/218
f 157/14/14 158/243/210 166/236/213 165/15/15
f 156/241/198 177/245/211 179/246/218 164/242/217
f 165/15/15 182/239/216 183/247/219 173/248/220
f 182/239/216 169/238/215 174/249/221 183/247/219
f 164/242/217 179/246/218 183/247/219 174/249/221
f 179/246/218 163/16/16 173/248/220 183/247/219
f 163/16/16 165/15/15 173/248/220
f 169/238/215 164/242/217 174/249/221
f 168/114/105 170/231/208 181/235/212 180/115/106
f 153/207/207 171/208/187 178/234/103 159/232/209
f 151/210/193 172/212/195 177/233/211 156/215/198
f 146/209/192 176/211/194 172/212/195 151/210/193
f 140/206/206 175/205/184 171/208/187 153/207/207
f 159/244/209 178/112/103 180/115/106 167/237/214
f 184/18/18 185/250/222 143/216/199
f 143/216/199 185/250/222 175/251/184 140/229/206
f 7/19/19 184/18/18 143/216/199
f 186/222/203 144/221/185 175/252/184 185/253/222
f 57/139/126 60/130/121 188/148/133 187/150/134
f 60/130/121 72/121/112 189/142/129 188/148/133
f 72/121/112 74/120/111 190/143/130 189/142/129
f 78/144/110 192/147/132 193/218/201 75/136/107
f 190/143/130 192/147/132 78/144/110
f 184/26/18 8/25/24 3/3/3
f 4/4/4 3/3/3 8/25/24
f 185/253/222 184/26/18 186/222/203
f 184/26/18 3/3/3 186/222/203
f 1/133/7 193/218/201 146/223/192 147/254/10
f 192/147/132 145/146/131 141/228/188 176/224/194
f 26/69/39 229/255/64 445/256/223 195/70/61
f 230/257/65 28/258/41 197/259/224 446/260/225
f 28/258/41 27/68/40 196/71/62 197/259/224
f 460/261/226 205/262/227 200/263/228 453/264/229
f 211/265/230 210/266/231 198/267/232 199/268/233
f 210/266/231 479/269/234 454/270/235 198/267/232
f 205/262/227 211/265/230 199/268/233 200/263/228
f 197/259/224 196/71/62 215/271/230 201/272/227
f 201/272/227 215/271/230 214/273/230 202/274/227
f 202/274/227 214/273/230 213/275/230 203/276/227
f 203/276/227 213/275/230 212/277/230 204/278/227
f 204/278/227 212/277/230 211/265/230 205/262/227
f 195/70/61 445/256/223 475/279/234 206/280/231
f 206/280/231 475/279/234 476/281/234 207/282/231
f 207/282/231 476/281/234 477/283/234 208/284/231
f 208/284/231 477/283/234 478/285/234 209/286/231
f 209/286/231 478/285/234 479/269/234 210/266/231
f 196/71/62 195/70/61 206/280/231 215/271/230
f 215/271/230 206/280/231 207/282/231 214/273/230
f 214/273/230 207/282/231 208/284/231 213/275/230
f 213/275/230 208/284/231 209/286/231 212/277/230
f 212/277/230 209/286/231 210/266/231 211/265/230
f 446/260/225 197/259/224 201/272/227 464/287/226
f 464/287/226 201/272/227 202/274/227 463/288/226
f 463/288/226 202/274/227 203/276/227 462/289/226
f 462/289/226 203/276/227 204/278/227 461/290/226
f 461/290/226 204/278/227 205/262/227 460/261/226
f 216/291/236 483/292/237 485/293/238 218/294/239
f 453/264/229 200/263/228 217/295/240 482/296/241
f 198/267/232 454/270/235 483/292/237 216/291/236
f 132/90/173 103/177/157 107/176/155 131/160/172
f 125/158/141 97/163/145 124/155/138
f 85/61/54 38/63/56 87/154/137
f 25/48/42 21/47/37 191/297/242 67/127/118
f 66/124/115 67/127/118 191/297/242 68/125/116
f 21/41/37 17/36/33 57/139/126 191/298/242
f 191/297/242 79/140/127 56/141/128 68/125/116
f 191/298/242 187/150/134 79/151/127
f 191/298/242 57/139/126 187/150/134
f 22/42/38 23/39/35 19/38/31 18/37/34
f 224/87/164 221/185/166 103/177/157 132/90/173
f 127/194/177 122/299/243 84/153/136 89/77/68
f 84/153/136 122/299/243 83/165/147
f 100/181/161 113/193/176 118/300/179 99/182/162
f 127/194/177 118/196/179 82/301/244 122/299/243
f 132/90/173 102/191/171 100/181/161 224/87/164
f 133/183/163 101/302/182 221/185/166 224/87/164
f 83/302/147 122/183/243 223/87/78 219/185/174
f 113/193/176 220/88/79 82/182/244 118/300/179
f 83/302/147 219/185/174 222/184/165 119/303/181
f 119/303/181 222/184/165 221/185/166 101/302/182
f 122/183/243 82/182/244 220/88/79 223/87/78
f 113/193/176 100/181/161 102/191/171 112/190/170
f 199/268/233 198/267/232 216/291/236 225/304/245
f 200/263/228 199/268/233 225/304/245 217/295/240
f 482/296/241 217/295/240 227/305/246 495/306/247
f 226/307/248 218/294/239 485/293/238 495/306/247 227/305/246
f 217/295/240 225/304/245 226/307/248 227/305/246
f 225/304/245 216/291/236 218/294/239 226/307/248
f 235/1/1 239/4/249 238/3/250 234/2/2
f 233/5/5 237/8/251 236/7/252 232/6/6
f 234/2/2 238/3/250 237/8/251 233/5/5
f 398/9/253 387/12/254 388/11/255 397/10/256
f 405/13/257 413/16/258 415/15/259 407/14/260
f 444/17/261 246/20/262 242/19/263 434/18/264
f 242/19/263 246/20/262 245/22/265 241/21/266
f 444/23/261 434/26/264 243/25/267 247/24/268
f 241/21/266 245/22/265 244/28/269 240/27/270
f 247/24/268 251/30/271 250/29/272 444/23/261
f 245/22/265 249/32/273 248/31/274 244/28/269
f 246/20/262 250/33/272 249/32/273 245/22/265
f 251/30/271 255/35/275 254/34/276 250/29/272
f 249/32/273 253/37/277 252/36/278 248/31/274
f 250/33/272 254/38/276 253/37/277 249/32/273
f 444/17/261 250/33/272 246/20/262
f 255/35/275 259/40/279 258/39/280 254/34/276
f 253/37/277 257/42/281 256/41/282 252/36/278
f 258/39/280 262/44/283 261/43/284 257/42/281
f 259/40/279 263/45/285 262/44/283 258/39/280
f 257/46/281 261/49/284 260/48/286 256/47/282
f 319/50/287 294/53/288 290/52/289 299/51/290
f 299/51/290 290/52/289 286/55/291 305/54/292
f 327/56/293 276/59/294 272/58/51 304/57/50
f 231/60/53 239/4/249 235/1/1
f 335/61/295 282/63/296 279/62/297
f 231/60/53 243/25/267 239/4/249
f 231/60/53 247/24/268 243/25/267
f 314/64/57 267/67/60 298/66/298 315/65/299
f 231/60/53 251/30/271 247/24/268
f 231/60/53 255/35/275 251/30/271
f 231/60/53 259/40/279 255/35/275
f 231/60/53 263/45/285 259/40/279
f 262/68/283 448/71/300 447/70/301 261/69/284
f 261/49/284 229/73/64 228/72/63 260/48/286
f 315/65/299 298/66/298 294/53/288 319/50/287
f 231/60/53 230/74/65 263/45/285
f 309/75/302 340/78/303 339/77/304 308/76/305
f 271/79/70 275/82/306 274/81/307 270/80/71
f 272/58/51 276/59/294 275/82/306 271/79/70
f 270/80/71 274/81/307 273/84/308 269/83/74
f 275/82/306 279/62/297 278/85/309 274/81/307
f 274/81/307 278/85/309 277/86/310 273/84/308
f 490/87/311 371/90/312 341/89/313 487/88/314
f 278/85/309 281/92/315 280/91/316 277/86/310
f 279/62/297 282/63/296 281/92/315 278/85/309
f 286/55/291 338/93/317 340/78/303 309/75/302
f 281/92/315 284/95/318 283/94/319 280/91/316
f 282/63/296 285/96/320 284/95/318 281/92/315
f 285/96/320 289/98/321 288/97/322 284/95/318
f 286/55/291 310/99/323 289/98/321 285/96/320
f 284/95/318 288/97/322 287/100/324 283/94/319
f 289/98/321 293/102/325 292/101/326 288/97/322
f 310/99/323 311/103/327 293/102/325 289/98/321
f 288/97/322 292/101/326 291/104/328 287/100/324
f 294/53/288 298/66/298 297/105/329 293/102/325 311/103/327
f 292/101/326 296/107/330 295/106/331 291/104/328
f 293/102/325 297/105/329 296/107/330 292/101/326
f 269/83/74 273/84/308 268/108/99
f 273/84/308 277/86/310 268/108/99
f 277/86/310 280/91/316 268/108/99
f 280/91/316 283/94/319 268/108/99
f 283/94/319 287/100/324 268/108/99
f 287/100/324 291/104/328 268/108/99
f 291/104/328 295/106/331 268/108/99
f 296/107/330 265/110/101 264/109/100 295/106/331
f 297/105/329 266/111/102 265/110/101 296/107/330
f 295/106/331 264/109/100 268/108/99
f 298/66/298 267/67/60 266/111/102 297/105/329
f 428/112/332 430/115/333 418/114/334 410/113/335
f 325/116/336 328/119/337 323/118/338 326/117/339
f 244/28/269 322/121/340 324/120/341 240/27/270
f 331/122/342 321/123/343 323/118/338 328/119/337
f 316/124/344 315/65/299 319/50/287 318/125/345
f 290/52/289 310/99/323 286/55/291
f 305/54/292 286/55/291 309/75/302 320/126/346
f 290/52/289 294/53/288 311/103/327 310/99/323
f 228/72/63 312/128/119 317/127/347 260/48/286
f 312/128/119 313/129/120 316/124/344 317/127/347
f 313/129/120 314/64/57 315/65/299 316/124/344
f 248/31/274 307/130/348 322/121/340 244/28/269
f 330/131/349 306/132/350 321/123/343 331/122/342
f 306/132/350 305/54/292 320/126/346 321/123/343
f 236/133/252 325/136/336 302/135/124 232/134/6
f 325/116/336 326/117/339 303/138/125 302/137/124
f 326/117/339 327/56/293 304/57/50 303/138/125
f 252/36/278 301/139/351 307/130/348 248/31/274
f 329/140/352 300/141/353 306/132/350 330/131/349
f 300/141/353 299/51/290 305/54/292 306/132/350
f 318/125/345 319/50/287 299/51/290 300/141/353
f 439/142/354 331/145/342 328/144/337 440/143/355
f 324/120/341 440/143/355 442/147/356 395/146/357
f 438/148/358 330/149/349 331/145/342 439/142/354
f 437/150/359 329/151/352 330/149/349 438/148/358
f 338/93/317 336/152/360 340/78/303
f 340/78/303 336/152/360 334/153/361 339/77/304
f 336/152/360 338/93/317 337/154/362 335/61/295
f 285/96/320 282/63/296 337/154/362
f 285/96/320 337/154/362 338/93/317 286/55/291
f 323/118/338 308/76/305 327/56/293 326/117/339
f 321/123/343 320/126/346 308/76/305 323/118/338
f 320/126/346 309/75/302 308/76/305
f 374/155/363 375/158/364 344/157/365 345/156/366
f 371/90/312 373/160/367 343/159/368 341/89/313
f 373/161/367 346/162/369 374/155/363
f 347/163/370 348/164/371 344/157/365 375/158/364
f 334/153/361 336/152/360 335/61/295 333/165/372
f 335/61/295 279/62/297 333/165/372
f 360/166/373 359/169/374 355/168/375 361/167/376
f 364/170/377 357/173/378 358/172/379 365/171/380
f 366/174/381 353/177/382 357/176/378 364/175/377
f 361/167/376 355/168/375 380/180/383 356/179/384 367/178/385
f 365/171/380 358/172/379 359/169/374 360/166/373
f 350/181/386 491/87/387 383/183/388 349/182/389
f 489/184/390 488/185/391 353/177/382 366/174/381
f 367/178/385 356/179/384 379/188/392 354/187/393 370/186/394
f 370/189/394 354/159/393 352/191/395 362/190/396
f 381/160/397 382/90/398 352/191/395 354/159/393
f 343/159/368 370/189/394 362/190/396 341/89/313
f 345/156/366 367/178/385 370/186/394 343/192/368
f 486/185/399 489/184/390 366/174/381 342/177/400
f 347/163/370 365/171/380 360/166/373 348/164/371
f 344/157/365 361/167/376 367/178/385 345/156/366
f 342/177/400 366/174/381 364/175/377 346/176/369
f 346/162/369 364/170/377 365/171/380 347/163/370
f 341/89/313 362/190/396 363/193/401 487/88/314
f 348/164/371 360/166/373 361/167/376 344/157/365
f 377/194/402 368/196/403 376/195/404
f 378/197/405 376/195/404 368/196/403 349/198/389
f 333/165/372 279/62/297 369/199/406
f 279/62/297 275/82/306 351/200/407 369/199/406
f 342/177/400 346/176/369 373/160/367 371/90/312
f 486/185/399 342/177/400 371/90/312 490/87/311
f 346/162/369 347/163/370 374/155/363
f 345/156/366 343/192/368 373/161/367 374/155/363
f 327/56/293 308/76/305 376/195/404 378/197/405
f 339/77/304 377/194/402 376/195/404 308/76/305
f 384/201/408 381/202/397 354/187/393 379/188/392
f 380/180/383 384/201/408 379/188/392 356/179/384
f 276/59/294 327/56/293 378/203/405
f 355/168/375 359/169/374 384/201/408 380/180/383
f 359/169/374 358/172/379 381/202/397 384/201/408
f 358/172/379 357/173/378 381/202/397
f 349/198/389 383/204/388 378/203/405
f 378/203/405 383/204/388 276/59/294
f 275/82/306 276/59/294 383/204/388 351/200/407
f 425/205/409 421/208/410 402/207/411 394/206/412
f 391/209/413 404/210/414 392/11/415 385/10/416
f 397/10/256 388/11/255 401/210/417 396/209/418
f 426/211/419 422/212/420 404/210/414 391/209/413
f 394/206/412 402/207/411 387/12/254 398/9/253
f 387/12/254 412/214/421 411/213/422 388/11/255
f 388/11/255 411/213/422 406/215/423 401/210/417
f 404/210/414 405/215/257 407/213/260 392/11/415
f 241/21/266 399/217/424 393/216/425 242/19/263
f 325/136/336 236/133/252 443/218/426
f 324/120/341 395/146/357 400/219/427 240/27/270
f 238/3/250 436/222/428 394/221/412 398/220/253 237/8/251
f 240/27/270 400/219/427 399/217/424 241/21/266
f 396/223/418 426/224/419 442/147/356 443/218/426
f 237/8/251 398/220/253 397/225/256 236/7/252
f 400/219/427 385/227/416 386/226/429 399/217/424
f 385/10/416 392/11/415 389/12/430 386/9/429
f 395/146/357 391/228/413 385/227/416 400/219/427
f 386/9/429 389/12/430 403/207/431 390/206/432
f 399/217/424 386/226/429 390/229/432 393/216/425
f 410/113/335 418/114/334 420/231/433 412/230/421
f 389/12/430 408/214/434 409/232/435 403/207/431
f 422/212/420 427/233/436 405/215/257 404/210/414
f 392/11/415 407/213/260 408/214/434 389/12/430
f 402/207/411 410/232/335 412/214/421 387/12/254
f 421/208/410 428/234/332 410/232/335 402/207/411
f 430/115/333 417/237/437 416/236/438 431/235/439
f 420/231/433 431/235/439 432/239/440 419/238/441
f 431/235/439 416/236/438 415/15/259 432/239/440
f 411/240/422 419/238/441 414/242/442 406/241/423
f 412/230/421 420/231/433 419/238/441 411/240/422
f 408/243/434 416/236/438 417/237/437 409/244/435
f 427/245/436 429/246/443 413/16/258 405/13/257
f 407/14/260 415/15/259 416/236/438 408/243/434
f 406/241/423 414/242/442 429/246/443 427/245/436
f 415/15/259 423/248/444 433/247/445 432/239/440
f 432/239/440 433/247/445 424/249/446 419/238/441
f 414/242/442 424/249/446 433/247/445 429/246/443
f 429/246/443 433/247/445 423/248/444 413/16/258
f 413/16/258 423/248/444 415/15/259
f 419/238/441 424/249/446 414/242/442
f 418/114/334 430/115/333 431/235/439 420/231/433
f 403/207/431 409/232/435 428/234/332 421/208/410
f 401/210/417 406/215/423 427/233/436 422/212/420
f 396/209/418 401/210/417 422/212/420 426/211/419
f 390/206/432 403/207/431 421/208/410 425/205/409
f 409/244/435 417/237/437 430/115/333 428/112/332
f 434/18/264 393/216/425 435/250/447
f 393/216/425 390/229/432 425/251/409 435/250/447
f 242/19/263 393/216/425 434/18/264
f 436/222/428 435/253/447 425/252/409 394/221/412
f 301/139/351 437/150/359 438/148/358 307/130/348
f 307/130/348 438/148/358 439/142/354 322/121/340
f 322/121/340 439/142/354 440/143/355 324/120/341
f 328/144/337 325/136/336 443/218/426 442/147/356
f 440/143/355 328/144/337 442/147/356
f 434/26/264 238/3/250 243/25/267
f 239/4/249 243/25/267 238/3/250
f 435/253/447 436/222/428 434/26/264
f 434/26/264 436/222/428 238/3/250
f 236/133/252 397/254/256 396/223/418 443/218/426
f 442/147/356 426/224/419 391/228/413 395/146/357
f 261/69/284 447/70/301 445/256/223 229/255/64
f 230/257/65 446/260/225 449/259/448 263/258/285
f 263/258/285 449/259/448 448/71/300 262/68/283
f 460/261/226 453/264/229 452/263/449 459/262/450
f 454/308/235 483/309/237 482/310/241 453/311/229
f 470/265/451 451/268/452 450/267/453 469/266/454
f 469/266/454 450/267/453 454/270/235 479/269/234
f 459/262/450 452/263/449 451/268/452 470/265/451
f 479/312/234 454/313/235 453/314/229 460/315/226
f 445/316/223 475/317/234 464/318/226 446/319/225
f 475/320/234 476/321/234 463/322/226 464/323/226
f 476/324/234 477/325/234 462/326/226 463/327/226
f 477/328/234 478/329/234 461/330/226 462/331/226
f 478/332/234 479/333/234 460/334/226 461/335/226
f 449/259/448 455/272/450 474/271/451 448/71/300
f 455/272/450 456/274/450 473/273/451 474/271/451
f 456/274/450 457/276/450 472/275/451 473/273/451
f 457/276/450 458/278/450 471/277/451 472/275/451
f 458/278/450 459/262/450 470/265/451 471/277/451
f 447/70/301 465/280/454 475/279/234 445/256/223
f 465/280/454 466/282/454 476/281/234 475/279/234
f 466/282/454 467/284/454 477/283/234 476/281/234
f 467/284/454 468/286/454 478/285/234 477/283/234
f 468/286/454 469/266/454 479/269/234 478/285/234
f 448/71/300 474/271/451 465/280/454 447/70/301
f 474/271/451 473/273/451 466/282/454 465/280/454
f 473/273/451 472/275/451 467/284/454 466/282/454
f 472/275/451 471/277/451 468/286/454 467/284/454
f 471/277/451 470/265/451 469/266/454 468/286/454
f 446/260/225 464/287/226 455/272/450 449/259/448
f 464/287/226 463/288/226 456/274/450 455/272/450
f 463/288/226 462/289/226 457/276/450 456/274/450
f 462/289/226 461/290/226 458/278/450 457/276/450
f 461/290/226 460/261/226 459/262/450 458/278/450
f 480/291/455 484/294/456 485/293/238 483/292/237
f 453/264/229 482/296/241 481/295/457 452/263/449
f 450/267/453 480/291/455 483/292/237 454/270/235
f 382/90/398 381/160/397 357/176/378 353/177/382
f 375/158/364 374/155/363 347/163/370
f 335/61/295 337/154/362 282/63/296
f 260/48/286 317/127/347 441/297/458 256/47/282
f 316/124/344 318/125/345 441/297/458 317/127/347
f 256/41/282 441/298/458 301/139/351 252/36/278
f 441/297/458 318/125/345 300/141/353 329/140/352
f 441/298/458 329/151/352 437/150/359
f 441/298/458 437/150/359 301/139/351
f 257/42/281 253/37/277 254/38/276 258/39/280
f 491/87/387 382/90/398 353/177/382 488/185/391
f 377/194/402 339/77/304 334/153/361 372/299/459
f 334/153/361 333/165/372 372/299/459
f 350/181/386 349/182/389 368/300/403 363/193/401
f 377/194/402 372/299/459 332/301/460 368/196/403
f 382/90/398 491/87/387 350/181/386 352/191/395
f 383/183/388 491/87/387 488/185/391 351/302/407
f 333/302/372 486/185/399 490/87/311 372/183/459
f 363/193/401 368/300/403 332/182/460 487/88/314
f 333/302/372 369/303/406 489/184/390 486/185/399
f 369/303/406 351/302/407 488/185/391 489/184/390
f 372/183/459 490/87/311 487/88/314 332/182/460
f 363/193/401 362/190/396 352/191/395 350/181/386
f 451/268/452 492/304/461 480/291/455 450/267/453
f 452/263/449 481/295/457 492/304/461 451/268/452
f 483/336/237 485/337/238 495/338/247 482/339/241
f 482/296/241 495/306/247 494/305/462 481/295/457
f 493/307/463 494/305/462 495/306/247 485/293/238 484/294/456
f 481/295/457 494/305/462 493/307/463 492/304/461
f 492/304/461 493/307/463 484/294/456 480/291/455
o Head_Cube.001
v 0.080725 2.786103 0.452402
v 0.135904 3.204803 0.421048
v 0.169026 2.369332 0.421048
v 2.224796 2.687316 0.452402
v 2.144382 3.151510 0.399078
v 2.123399 2.290414 0.412449
v 1.154457 2.748769 1.242184
v 1.090511 3.230054 1.224040
v 0.702054 2.745766 1.126520
v 1.157932 2.284144 1.119147
v 1.684221 2.747638 1.083665
v 1.570876 3.183916 1.122035
v 0.720611 3.188651 1.133970
v 0.733409 2.329615 1.051549
v 1.619185 2.334925 1.000520
v 1.180180 1.727399 -0.006845
v 1.651027 1.750119 -0.002381
v 1.173873 1.744063 0.490606
v 0.733409 1.810601 0.470912
v 0.958507 3.864613 0.379789
v 1.604873 3.763641 0.320762
v 0.673763 3.786504 0.517221
v 0.381789 2.382933 0.798191
v 0.321889 2.755154 0.845463
v 0.361528 3.164024 0.807399
v 0.342312 3.565866 0.406592
v 0.381789 2.023892 0.384434
v 1.934940 3.511787 0.335507
v 1.932377 3.134703 0.810131
v 1.988717 2.735057 0.844744
v 1.948324 2.321172 0.819857
v 1.497090 3.551604 1.096271
v 1.043189 3.608165 1.203010
v 0.698238 3.565561 0.929037
v 0.764763 2.001391 0.839143
v 1.163140 1.859339 0.809909
v 0.497503 2.125296 0.697383
v 0.468721 3.448067 0.733515
v 1.818947 3.408488 0.708733
v 1.771592 4.138649 0.325707
v 1.204635 4.031425 1.127015
v 1.591419 4.560130 0.880308
v 1.165342 4.203474 0.517300
v 1.330693 3.205525 1.173586
v 1.381056 2.747995 1.183777
v 1.373631 2.319901 1.076653
v 1.416589 1.736545 -0.009086
v 1.394662 1.806308 0.443579
v 1.270139 3.597262 1.155815
v 1.404627 1.905130 0.757449
v 1.329092 4.376648 0.656039
v 1.345603 4.246417 1.066551
v 1.102565 3.821847 1.160546
v 1.513178 3.985487 1.042167
v 1.040577 4.036875 0.437961
v 1.588497 4.141054 0.513731
v 1.318545 3.895009 1.084364
v 1.300616 4.081131 0.469559
v 1.616349 3.962037 0.072090
v 1.653688 3.931873 0.295126
v 1.470633 4.017216 0.072090
v 1.447274 3.982359 0.324582
v 2.276100 2.171119 0.065980
v 2.300284 2.070325 0.065980
v 2.108232 2.217766 0.438275
v 1.575491 1.823358 0.439227
v 2.158032 2.109941 0.419045
v 2.145082 2.029941 0.413558
v 2.066498 1.951697 0.412721
v 1.903292 1.871414 0.425834
v 1.574268 1.932525 0.728689
v 2.030474 2.125156 0.614916
v 1.967454 2.078322 0.688346
v 1.916211 2.035143 0.706464
v 1.841543 1.957267 0.700790
v 0.275408 2.196608 0.402741
v 1.161448 2.103238 1.025578
v 0.749086 2.165679 0.974273
v 1.581637 2.171197 0.935929
v 0.439646 2.254115 0.747787
v 1.921280 2.181607 0.770743
v 1.406930 2.142895 0.969603
v 1.769114 1.851241 0.442218
v 2.001710 1.997907 0.573127
v 2.068624 2.055299 0.558447
v 2.109947 2.117682 0.533459
v 1.886315 1.914173 0.593579
v 1.953990 1.837678 0.215869
v 1.613095 1.766502 0.222155
v 2.128769 1.952650 0.211420
v 2.243254 2.144249 0.214714
v 2.248090 2.055589 0.213014
v 2.183413 2.263161 0.222812
v 1.826871 1.809321 0.222457
v 2.198019 2.298654 0.207781
v 1.451841 1.820073 1.900682
v 1.516416 1.699922 1.597359
v 1.444910 1.699922 1.597359
v 1.443424 1.412287 1.859133
v 1.523822 1.499670 1.429875
v 1.444910 1.499670 1.429875
v 1.451775 1.182908 1.518764
v 1.469180 1.988716 1.346449
v 1.466919 1.610345 1.048704
v 1.590574 2.001888 1.359772
v 1.589434 1.607068 1.049540
v 1.441045 3.700008 0.715206
v 1.440918 4.057200 0.774441
v 2.043271 2.286185 0.616761
v 2.014756 2.188130 0.605204
v -0.000679 2.797319 0.000000
v 0.058961 3.241432 0.000000
v 0.097358 2.344307 0.000000
v 0.080725 2.786103 -0.452402
v 0.135904 3.204803 -0.421048
v 0.169026 2.369332 -0.421048
v 2.299439 2.653008 0.000000
v 2.214011 3.177398 0.000000
v 2.224796 2.687316 -0.452402
v 2.210812 2.283964 0.000000
v 2.144382 3.151510 -0.399078
v 2.123399 2.290414 -0.412449
v 1.154457 2.748769 -1.242184
v 1.090511 3.230054 -1.224040
v 0.702054 2.745766 -1.126520
v 1.157932 2.284144 -1.119147
v 1.684221 2.747638 -1.083665
v 1.570876 3.183916 -1.122035
v 0.720611 3.188651 -1.133970
v 0.733409 2.329615 -1.051549
v 1.619185 2.334925 -1.000520
v 1.180180 1.727399 0.006845
v 0.702054 1.811598 0.000000
v 1.651027 1.750119 0.002381
v 1.173873 1.744063 -0.490606
v 0.733409 1.810601 -0.470912
v 0.952318 3.904163 0.000000
v 1.567535 3.793805 0.000000
v 0.640844 3.848809 0.000000
v 0.958507 3.864613 -0.379789
v 1.604873 3.763641 -0.320761
v 0.673763 3.786504 -0.517221
v 0.381789 2.382933 -0.798191
v 0.321889 2.755154 -0.845463
v 0.361528 3.164024 -0.807399
v 0.342312 3.565866 -0.406592
v 0.280414 3.624676 0.000000
v 0.324679 1.977524 0.000000
v 0.381789 2.023892 -0.384434
v 1.990846 3.560462 0.000000
v 1.934940 3.511787 -0.335507
v 1.932377 3.134703 -0.810131
v 1.988717 2.735057 -0.844744
v 1.948324 2.321172 -0.819857
v 1.497090 3.551604 -1.096271
v 1.043189 3.608165 -1.203010
v 0.698238 3.565561 -0.929037
v 0.764763 2.001391 -0.839143
v 1.163140 1.859339 -0.809909
v 0.497503 2.125296 -0.697383
v 0.468721 3.448067 -0.733515
v 1.818947 3.408488 -0.708733
v 1.771592 4.138649 -0.325707
v 1.204635 4.031425 -1.127015
v 1.591419 4.560130 -0.880308
v 1.165342 4.203474 -0.517300
v 1.330693 3.205525 -1.173586
v 1.381056 2.747995 -1.183777
v 1.373631 2.319901 -1.076653
v 1.416589 1.736545 0.009086
v 1.394662 1.806308 -0.443579
v 1.270139 3.597262 -1.155815
v 1.404627 1.905130 -0.757449
v 1.329092 4.376648 -0.656039
v 1.345603 4.246417 -1.066551
v 1.102565 3.821847 -1.160546
v 1.513178 3.985487 -1.042167
v 1.040577 4.036875 -0.437961
v 1.588497 4.141054 -0.513731
v 1.318545 3.895009 -1.084364
v 1.300616 4.081131 -0.469559
v 1.616349 3.962037 -0.072090
v 1.653688 3.931873 -0.295126
v 1.470633 4.017216 -0.072090
v 1.447274 3.982359 -0.324582
v 2.276100 2.171119 -0.065980
v 2.300284 2.070325 -0.065980
v 2.148591 1.940382 0.000000
v 1.965380 1.842492 0.000000
v 2.331383 2.167637 0.000000
v 2.108232 2.217766 -0.438275
v 1.575491 1.823358 -0.439227
v 2.158032 2.109941 -0.419045
v 2.145082 2.029941 -0.413557
v 2.066498 1.951697 -0.412721
v 1.903292 1.871414 -0.425834
v 1.574268 1.932525 -0.728689
v 2.030474 2.125156 -0.614916
v 1.967454 2.078322 -0.688346
v 1.916211 2.035143 -0.706464
v 1.841543 1.957267 -0.700790
v 0.211019 2.159141 0.000000
v 0.275408 2.196608 -0.402741
v 1.161448 2.103238 -1.025578
v 0.749086 2.165679 -0.974273
v 1.581637 2.171197 -0.935929
v 0.439646 2.254115 -0.747787
v 1.921280 2.181607 -0.770743
v 1.406930 2.142895 -0.969603
v 1.845249 1.808736 0.000000
v 1.769114 1.851241 -0.442218
v 2.001710 1.997907 -0.573127
v 2.068624 2.055299 -0.558447
v 2.109947 2.117682 -0.533459
v 1.886315 1.914173 -0.593579
v 1.953990 1.837678 -0.215869
v 1.613095 1.766502 -0.222155
v 2.128769 1.952650 -0.211420
v 2.243254 2.144249 -0.214714
v 2.248090 2.055589 -0.213014
v 2.183413 2.263161 -0.222812
v 1.826871 1.809321 -0.222457
v 2.273725 2.188895 0.000000
v 2.299499 2.076777 0.000000
v 2.198019 2.298654 -0.207781
v 1.451841 1.820073 -1.900682
v 1.516416 1.699922 -1.597359
v 1.444910 1.699922 -1.597359
v 1.443424 1.412287 -1.859134
v 1.523822 1.499670 -1.429876
v 1.444910 1.499670 -1.429876
v 1.451775 1.182908 -1.518764
v 1.469180 1.988716 -1.346449
v 1.466919 1.610345 -1.048704
v 1.590574 2.001888 -1.359772
v 1.589434 1.607068 -1.049540
v 1.441045 3.700008 -0.715206
v 1.440918 4.057200 -0.774441
v 2.043271 2.286185 -0.616761
v 2.014756 2.188130 -0.605204
vt 0.261523 0.559557
vt 0.283190 0.556744
vt 0.284696 0.591266
vt 0.265121 0.601993
vt 0.291078 0.623890
vt 0.272820 0.640081
vt 0.301701 0.551223
vt 0.303658 0.583309
vt 0.305928 0.608024
vt 0.263651 0.515616
vt 0.282885 0.522433
vt 0.300611 0.523041
vt 0.266369 0.496394
vt 0.269700 0.477456
vt 0.286218 0.489881
vt 0.284346 0.506142
vt 0.299723 0.500172
vt 0.300119 0.511649
vt 0.708600 0.551708
vt 0.708600 0.613748
vt 0.680916 0.616724
vt 0.683709 0.558733
vt 0.655506 0.622431
vt 0.645184 0.566293
vt 0.708600 0.663554
vt 0.686189 0.664935
vt 0.658712 0.646519
vt 0.788056 0.185160
vt 0.727878 0.193850
vt 0.728402 0.073996
vt 0.756427 0.065924
vt 0.784617 0.054685
vt 0.667744 0.194785
vt 0.681211 0.092374
vt 0.704806 0.083185
vt 0.644993 0.621908
vt 0.638556 0.585761
vt 0.645834 0.637106
vt 0.644009 0.639758
vt 0.648904 0.656354
vt 0.340237 0.537603
vt 0.341470 0.576533
vt 0.324456 0.579470
vt 0.320556 0.545851
vt 0.340909 0.606231
vt 0.320409 0.612614
vt 0.317137 0.514076
vt 0.333295 0.499112
vt 0.329530 0.483749
vt 0.314743 0.501131
vt 0.310880 0.486845
vt 0.322098 0.461312
vt 0.632390 0.198693
vt 0.640701 0.094025
vt 0.660033 0.095782
vt 0.649984 0.194639
vt 0.295513 0.406616
vt 0.312948 0.439563
vt 0.298357 0.464485
vt 0.280123 0.441531
vt 0.708600 0.692441
vt 0.695793 0.697606
vt 0.676631 0.675643
vt 0.292608 0.684836
vt 0.284167 0.668968
vt 0.306694 0.642044
vt 0.313468 0.665165
vt 0.335019 0.668143
vt 0.350154 0.631383
vt 0.356426 0.641715
vt 0.346696 0.671420
vt 0.344839 0.619669
vt 0.355999 0.620393
vt 0.325097 0.665978
vt 0.331582 0.679218
vt 0.365964 0.624486
vt 0.366075 0.652880
vt 0.320277 0.425260
vt 0.330864 0.447976
vt 0.304046 0.391371
vt 0.339946 0.473065
vt 0.346840 0.495615
vt 0.350651 0.531523
vt 0.353107 0.570481
vt 0.352130 0.600958
vt 0.363753 0.595061
vt 0.665479 0.669233
vt 0.695722 0.677855
vt 0.682708 0.716369
vt 0.662093 0.710346
vt 0.322792 0.710606
vt 0.305276 0.713887
vt 0.310411 0.704585
vt 0.314671 0.702386
vt 0.340749 0.691877
vt 0.314575 0.694990
vt 0.307246 0.700503
vt 0.439373 0.378680
vt 0.439091 0.387023
vt 0.432690 0.382085
vt 0.432610 0.373132
vt 0.444445 0.363864
vt 0.440733 0.371606
vt 0.436471 0.367597
vt 0.440190 0.358673
vt 0.447409 0.368524
vt 0.448496 0.372377
vt 0.443987 0.378446
vt 0.442919 0.374898
vt 0.449862 0.379409
vt 0.444753 0.385272
vt 0.440256 0.364795
vt 0.433197 0.360446
vt 0.439953 0.381121
vt 0.436373 0.387294
vt 0.434249 0.386287
vt 0.437758 0.379110
vt 0.441701 0.382605
vt 0.439553 0.386782
vt 0.358131 0.497255
vt 0.342543 0.405481
vt 0.391836 0.435781
vt 0.665970 0.052643
vt 0.687781 0.055671
vt 0.649736 0.048433
vt 0.540044 0.185022
vt 0.563204 0.181692
vt 0.563741 0.198593
vt 0.427241 0.379788
vt 0.423414 0.376135
vt 0.434206 0.375906
vt 0.432083 0.381710
vt 0.423333 0.358509
vt 0.420852 0.381665
vt 0.413501 0.359570
vt 0.755034 0.053715
vt 0.370146 0.368348
vt 0.684725 0.018910
vt 0.699336 0.033567
vt 0.419915 0.386705
vt 0.447326 0.369111
vt 0.446316 0.381788
vt 0.454900 0.373589
vt 0.451706 0.367792
vt 0.554665 0.356244
vt 0.527153 0.344294
vt 0.526232 0.290176
vt 0.564425 0.285238
vt 0.450521 0.363378
vt 0.520949 0.219207
vt 0.560498 0.210954
vt 0.445728 0.389530
vt 0.391082 0.499109
vt 0.453244 0.366329
vt 0.725073 0.054207
vt 0.225389 0.282458
vt 0.225102 0.308392
vt 0.213188 0.304318
vt 0.213058 0.285806
vt 0.433339 0.348614
vt 0.423202 0.347440
vt 0.706427 0.054939
vt 0.448441 0.354158
vt 0.397448 0.394001
vt 0.394964 0.389327
vt 0.395495 0.387299
vt 0.398623 0.391709
vt 0.390419 0.384686
vt 0.393205 0.380582
vt 0.391095 0.373333
vt 0.395711 0.375537
vt 0.397039 0.368645
vt 0.398940 0.381484
vt 0.400000 0.380244
vt 0.404247 0.375921
vt 0.404782 0.383063
vt 0.402193 0.386100
vt 0.400916 0.388299
vt 0.392326 0.380218
vt 0.395260 0.373709
vt 0.399900 0.372244
vt 0.400079 0.363607
vt 0.402148 0.369989
vt 0.403972 0.364759
vt 0.641903 0.645774
vt 0.645171 0.698341
vt 0.364659 0.664960
vt 0.656950 0.766288
vt 0.653927 0.761178
vt 0.312603 0.700923
vn -0.999400 -0.035600 0.000000
vn -0.934600 -0.033800 0.354000
vn -0.887600 0.304800 0.345200
vn -0.944500 0.328400 0.000000
vn -0.715600 0.627900 0.305900
vn -0.730600 0.682800 0.000000
vn -0.750100 -0.050400 0.659400
vn -0.745600 0.247800 0.618500
vn -0.692300 0.498300 0.521900
vn -0.926000 -0.377500 0.000000
vn -0.873000 -0.363800 0.324700
vn -0.711200 -0.332300 0.619500
vn -0.846400 -0.532500 0.000000
vn -0.683200 -0.730200 0.000000
vn -0.670200 -0.689400 0.274800
vn -0.795600 -0.519100 0.312300
vn -0.631200 -0.594900 0.497600
vn -0.671600 -0.496900 0.549600
vn 0.999500 -0.030300 0.000000
vn 0.936600 0.350400 0.000000
vn 0.887000 0.340800 0.311400
vn 0.942400 -0.009100 0.334200
vn 0.764100 0.280100 0.581100
vn 0.757400 -0.006500 0.652900
vn 0.717900 0.696100 0.000000
vn 0.701400 0.665400 0.255300
vn 0.698400 0.565700 0.438300
vn 0.923300 -0.178100 0.340300
vn 0.952600 -0.246000 0.179000
vn 0.989700 0.143300 0.000000
vn 0.687300 -0.271000 0.673900
vn 0.868600 -0.218400 0.444700
vn 0.261800 -0.102200 0.959700
vn 0.468100 -0.060200 0.881600
vn 0.481100 0.155500 0.862800
vn 0.236000 0.066400 0.969500
vn 0.605000 0.282900 0.744200
vn 0.012400 -0.102100 0.994700
vn -0.070400 0.091700 0.993300
vn -0.499200 0.153500 0.852700
vn -0.434900 -0.087400 0.896200
vn -0.271800 0.358700 0.893000
vn -0.510400 0.615000 0.601000
vn -0.399800 -0.331300 0.854600
vn 0.024800 -0.356200 0.934000
vn 0.042400 -0.565600 0.823500
vn -0.388700 -0.527700 0.755300
vn -0.378900 -0.715900 0.586400
vn 0.035900 -0.823500 0.566100
vn 0.266400 -0.340200 0.901800
vn 0.388000 -0.309600 0.868000
vn 0.003400 -0.998300 0.058600
vn 0.019500 -0.975400 0.219500
vn -0.354600 -0.902000 0.246300
vn -0.325800 -0.945400 0.000000
vn 0.822100 0.569300 0.000000
vn 0.809400 0.522900 0.267100
vn 0.915900 0.338600 0.215400
vn -0.189600 0.981800 0.000000
vn -0.384700 0.923000 0.000000
vn -0.416000 0.857900 0.301600
vn -0.391200 0.919100 0.046100
vn -0.512900 0.712500 -0.478900
vn -0.364300 0.395800 0.843000
vn -0.281700 0.509700 0.812900
vn -0.433500 0.811900 -0.390900
vn -0.476800 0.371000 0.796800
vn 0.289000 0.103400 0.951700
vn -0.621700 0.559700 -0.547900
vn 0.063000 0.468200 -0.881400
vn 0.858100 0.042300 0.511600
vn 0.436400 0.875900 0.205700
vn 0.154900 -0.963900 0.216700
vn -0.202000 -0.979300 0.005000
vn 0.092000 -0.987600 0.126800
vn -0.313400 -0.013300 0.949500
vn 0.232800 0.119500 0.965100
vn 0.837800 0.316200 -0.445100
vn 0.981100 -0.178000 0.074900
vn 0.673800 0.221400 -0.704900
vn 0.753900 -0.321100 0.573100
vn -0.136000 0.637800 0.758100
vn -0.075300 0.820700 -0.566300
vn 0.212900 -0.967300 0.137900
vn 0.373700 -0.919900 0.119100
vn 0.326700 -0.904500 0.274100
vn 0.144300 -0.946400 0.288900
vn 0.582800 -0.798600 0.150200
vn 0.576800 -0.758700 0.302700
vn 0.875100 -0.388300 0.288700
vn 0.911600 0.244800 0.330200
vn 0.889500 0.105300 0.444700
vn 0.796100 -0.466600 0.385400
vn 0.951400 0.111000 0.287100
vn 0.897800 0.120200 0.423700
vn 0.113600 -0.980000 0.163300
vn 0.112200 -0.957000 0.267300
vn 0.734200 -0.395700 0.551600
vn 0.658900 -0.335200 0.673400
vn 0.499300 -0.484600 0.718200
vn 0.587700 -0.658300 0.470200
vn 0.845900 0.108600 0.522100
vn 0.805300 0.086900 0.586500
vn 0.837900 0.438700 0.324600
vn 0.899900 -0.394700 0.185500
vn 0.890200 0.455600 0.000000
vn 0.670400 0.034700 0.741200
vn 0.610900 -0.350900 0.709700
vn 0.580100 -0.814500 0.000000
vn 0.839300 -0.543700 0.000000
vn 0.350700 -0.847800 0.397800
vn 0.297700 -0.748100 0.593000
vn 0.474800 -0.879900 0.018400
vn 0.141600 -0.983900 0.109200
vn 0.242400 -0.970200 0.000000
vn 0.386500 -0.922300 0.000000
vn 0.651400 0.758700 0.000000
vn 0.877400 0.011900 0.479500
vn -0.743100 0.621800 0.247100
vn 0.709500 0.631300 0.313200
vn -0.126300 -0.257200 0.958000
vn 0.544800 -0.225000 0.807800
vn -0.108700 -0.509300 0.853700
vn 0.540000 -0.572900 0.616500
vn -0.119700 -0.589100 0.799200
vn 0.723800 -0.541900 -0.427100
vn -0.685900 -0.546300 -0.480600
vn -0.573300 -0.165200 0.802500
vn -0.569900 -0.569400 0.592400
vn 0.709100 0.594700 0.378800
vn -0.887600 0.304800 -0.345200
vn -0.934600 -0.033800 -0.354000
vn -0.715600 0.627900 -0.305900
vn -0.745600 0.247800 -0.618500
vn -0.750100 -0.050400 -0.659400
vn -0.692300 0.498300 -0.521900
vn -0.873000 -0.363800 -0.324700
vn -0.711200 -0.332300 -0.619500
vn -0.795600 -0.519100 -0.312300
vn -0.670200 -0.689400 -0.274800
vn -0.671600 -0.496900 -0.549600
vn -0.631200 -0.594900 -0.497600
vn 0.942400 -0.009100 -0.334200
vn 0.887000 0.340800 -0.311400
vn 0.757400 -0.006500 -0.652900
vn 0.764100 0.280100 -0.581100
vn 0.701400 0.665400 -0.255300
vn 0.698400 0.565700 -0.438300
vn 0.952600 -0.246000 -0.179000
vn 0.923300 -0.178100 -0.340300
vn 0.868600 -0.218400 -0.444700
vn 0.687300 -0.271000 -0.673900
vn 0.261800 -0.102200 -0.959700
vn 0.236000 0.066400 -0.969500
vn 0.481100 0.155500 -0.862800
vn 0.468100 -0.060200 -0.881600
vn 0.605000 0.282900 -0.744200
vn 0.012400 -0.102100 -0.994700
vn -0.434900 -0.087400 -0.896200
vn -0.499200 0.153500 -0.852700
vn -0.070400 0.091700 -0.993300
vn -0.510400 0.615000 -0.601000
vn -0.271800 0.358700 -0.893000
vn 0.024800 -0.356200 -0.934000
vn -0.399800 -0.331300 -0.854600
vn 0.042400 -0.565600 -0.823500
vn 0.035900 -0.823500 -0.566100
vn -0.378900 -0.715900 -0.586400
vn -0.388700 -0.527700 -0.755300
vn 0.388000 -0.309600 -0.868000
vn 0.266400 -0.340200 -0.901800
vn 0.003400 -0.998300 -0.058600
vn -0.354600 -0.902000 -0.246300
vn 0.019500 -0.975400 -0.219500
vn 0.809400 0.522900 -0.267100
vn 0.915900 0.338600 -0.215400
vn -0.391200 0.919100 -0.046100
vn -0.416000 0.857900 -0.301600
vn -0.512900 0.712500 0.478900
vn -0.433500 0.811900 0.390900
vn -0.281700 0.509700 -0.812900
vn -0.364300 0.395800 -0.843000
vn -0.476800 0.371000 -0.796800
vn 0.289000 0.103400 -0.951700
vn -0.621700 0.559700 0.547900
vn 0.063000 0.468200 0.881400
vn 0.436400 0.875900 -0.205700
vn 0.858100 0.042300 -0.511600
vn -0.202000 -0.979300 -0.005000
vn 0.154900 -0.963900 -0.216700
vn 0.092000 -0.987600 -0.126800
vn -0.313400 -0.013300 -0.949500
vn 0.232800 0.119500 -0.965100
vn 0.981100 -0.178000 -0.074900
vn 0.837800 0.316200 0.445100
vn 0.753900 -0.321100 -0.573100
vn 0.673800 0.221400 0.704900
vn -0.136000 0.637800 -0.758100
vn -0.075300 0.820700 0.566300
vn 0.212900 -0.967300 -0.137900
vn 0.144300 -0.946400 -0.288900
vn 0.326700 -0.904500 -0.274100
vn 0.373700 -0.919900 -0.119100
vn 0.582800 -0.798600 -0.150200
vn 0.576800 -0.758700 -0.302700
vn 0.875100 -0.388300 -0.288700
vn 0.796100 -0.466600 -0.385400
vn 0.889500 0.105300 -0.444700
vn 0.911600 0.244800 -0.330200
vn 0.951400 0.111000 -0.287100
vn 0.897800 0.120200 -0.423700
vn 0.113600 -0.980000 -0.163300
vn 0.112200 -0.957000 -0.267300
vn 0.734200 -0.395700 -0.551600
vn 0.587700 -0.658300 -0.470200
vn 0.499300 -0.484600 -0.718200
vn 0.658900 -0.335200 -0.673400
vn 0.805300 0.086900 -0.586500
vn 0.845900 0.108600 -0.522100
vn 0.837900 0.438700 -0.324600
vn 0.899900 -0.394700 -0.185500
vn 0.610900 -0.350900 -0.709700
vn 0.670400 0.034700 -0.741200
vn 0.297700 -0.748100 -0.593000
vn 0.350700 -0.847800 -0.397800
vn 0.474800 -0.879900 -0.018400
vn 0.141600 -0.983900 -0.109200
vn 0.877400 0.011900 -0.479500
vn 0.709500 0.631300 -0.313200
vn -0.743100 0.621800 -0.247100
vn -0.126300 -0.257200 -0.958000
vn 0.723800 -0.541900 0.427100
vn -0.119700 -0.589100 -0.799200
vn 0.540000 -0.572900 -0.616500
vn -0.108700 -0.509300 -0.853700
vn 0.544800 -0.225000 -0.807800
vn -0.685900 -0.546300 0.480600
vn -0.573300 -0.165200 -0.802500
vn -0.569900 -0.569400 -0.592400
vn 0.709100 0.594700 -0.378800
usemtl Material.001
s 1
f 606/340/464 496/341/465 497/342/466 607/343/467
f 607/343/467 497/342/466 521/344/468 642/345/469
f 496/341/465 519/346/470 520/347/471 497/342/466
f 497/342/466 520/347/471 533/348/472 521/344/468
f 606/340/464 608/349/473 498/350/474 496/341/465
f 496/341/465 498/350/474 518/351/475 519/346/470
f 697/352/476 643/353/477 522/354/478 571/355/479
f 571/355/479 522/354/478 532/356/480 575/357/481
f 612/358/482 613/359/483 500/360/484 499/361/485
f 499/361/485 500/360/484 524/362/486 525/363/487
f 613/359/483 645/364/488 523/365/489 500/360/484
f 500/360/484 523/365/489 534/366/490 524/362/486
f 612/367/482 499/368/485 501/369/491 590/370/492 615/371/493
f 499/368/485 525/372/487 526/373/494 604/374/495 501/369/491
f 540/375/496 506/376/497 507/377/498 539/378/499
f 507/377/498 527/379/500 539/378/499
f 506/376/497 525/363/487 524/362/486 507/377/498
f 507/377/498 524/362/486 534/366/490 527/379/500
f 502/380/501 503/381/502 508/382/503 504/383/504
f 504/383/504 508/382/503 520/347/471 519/346/470
f 503/381/502 528/384/505 529/385/506 508/382/503
f 508/382/503 529/385/506 533/348/472 520/347/471
f 502/380/501 504/383/504 509/386/507 505/387/508
f 572/388/509 573/389/510 530/390/511 531/391/512
f 504/383/504 519/346/470 518/351/475 509/386/507
f 573/389/510 575/357/481 532/356/480 530/390/511
f 540/392/496 541/393/513 510/394/514 506/395/497
f 506/395/497 510/394/514 526/373/494 525/372/487
f 511/396/515 513/397/516 514/398/517 628/399/518
f 628/399/518 514/398/517 522/354/478 643/353/477
f 513/397/516 531/391/512 530/390/511 514/398/517
f 514/398/517 530/390/511 532/356/480 522/354/478
f 633/400/519 516/401/520 523/365/489 645/364/488
f 516/401/520 602/402/521 527/379/500 534/366/490 523/365/489
f 632/403/522 634/404/523 517/405/524 515/406/525
f 515/406/525 517/405/524 529/385/506 528/384/505
f 634/404/523 642/345/469 521/344/468 517/405/524
f 517/405/524 521/344/468 533/348/472 529/385/506
f 538/407/526 536/408/527 547/409/528 546/410/529
f 548/411/530 552/412/531 547/409/528 536/408/527
f 550/413/532 548/411/530 536/408/527 538/407/526
f 553/414/533 550/413/532 538/407/526 546/410/529
f 552/412/531 549/415/534 537/416/535 547/409/528
f 513/397/516 543/417/536 545/418/537 531/391/512
f 511/396/515 542/419/538 543/417/536 513/397/516
f 572/388/509 531/391/512 545/418/537 577/420/539
f 502/380/501 505/387/508 541/421/513 540/422/496
f 503/381/502 539/423/499 544/424/540 528/384/505
f 502/380/501 540/422/496 539/423/499 503/381/502
f 544/424/540 527/425/500 549/415/534 552/412/531
f 602/426/521 516/427/520 551/428/541 603/429/542
f 515/406/525 528/384/505 548/411/530 550/413/532
f 528/384/505 544/424/540 552/412/531 548/411/530
f 516/430/520 633/431/519 554/432/543 555/433/544
f 515/406/525 550/413/532 553/414/533
f 516/430/520 515/406/525 553/414/533 551/434/541
f 515/406/525 516/430/520 555/433/544 557/435/545
f 632/403/522 515/406/525 557/435/545 556/436/546
f 633/431/519 632/403/522 556/436/546 554/432/543
f 589/437/547 583/438/548 565/439/549 578/440/550
f 585/441/551 564/442/552 565/443/549 583/444/548
f 587/445/553 586/446/554 562/447/555 563/448/556
f 587/445/553 563/448/556 564/442/552 585/441/551
f 588/449/557 560/450/558 562/447/555 586/446/554
f 584/451/559 589/437/547 578/440/550 561/452/560
f 580/453/561 568/454/562 569/455/563 579/456/564
f 580/453/561 581/457/565 567/458/566 568/454/562
f 558/459/567 559/460/568 685/461/569
f 505/387/508 572/388/509 577/420/539 541/421/513
f 510/394/514 574/462/570 576/463/571 526/373/494
f 541/393/513 577/464/539 574/462/570 510/394/514
f 509/386/507 518/351/475 575/357/481 573/389/510
f 505/387/508 509/386/507 573/389/510 572/388/509
f 683/465/572 719/466/573 559/467/568
f 498/350/474 571/355/479 575/357/481 518/351/475
f 608/349/473 697/352/476 571/355/479 498/350/474
f 562/447/555 560/450/558 567/458/566 581/457/565
f 578/440/550 565/439/549 582/468/574 570/469/575
f 582/470/574 579/456/564 569/455/563 570/471/575
f 570/469/575 566/472/576 561/452/560 578/440/550
f 570/469/575 569/473/563 574/474/570 566/472/576
f 615/371/493 590/370/492 588/475/557
f 565/443/549 564/442/552 579/456/564 582/470/574
f 563/448/556 562/447/555 581/457/565 580/453/561
f 563/448/556 580/453/561 579/456/564 564/442/552
f 685/461/569 559/460/568 719/476/573
f 568/477/562 567/478/566 576/463/571
f 569/473/563 568/479/562 574/474/570
f 574/462/570 568/477/562 576/463/571
f 512/480/577 705/481/578 589/437/547 584/451/559
f 615/482/493 588/449/557 586/446/554 558/483/567
f 559/484/568 587/485/553 585/486/551 683/487/572
f 559/488/568 558/483/567 586/446/554 587/445/553
f 683/487/572 585/486/551 583/489/548 684/490/579
f 705/481/578 684/491/579 583/438/548 589/437/547
f 558/459/567 685/461/569 718/492/580
f 558/483/567 718/493/580 615/482/493
f 590/370/492 501/369/491 560/494/558 588/475/557
f 577/495/539 574/496/570 566/497/576 545/498/537
f 543/499/536 561/452/560 566/472/576 545/500/537
f 604/374/495 526/373/494 576/463/571 605/501/581
f 567/478/566 560/494/558 605/501/581 576/463/571
f 542/502/538 512/480/577 584/451/559 561/452/560 543/499/536
f 577/503/539 598/504/582 600/505/583 574/506/570
f 591/507/584 592/508/585 594/509/586 595/510/587 597/511/588 601/512/589 600/505/583
f 599/513/590 598/514/582 577/515/539 545/516/537
f 600/505/583 601/512/589 566/517/576 574/506/570
f 566/517/576 601/512/589 599/513/590 545/516/537
f 591/507/584 593/518/591 592/508/585
f 593/518/591 594/509/586 592/508/585
f 594/509/586 596/519/592 595/510/587
f 596/519/592 597/511/588 595/510/587
f 601/512/589 597/511/588 599/513/590
f 598/504/582 591/507/584 600/505/583
f 597/511/588 596/520/592 594/521/586 593/522/591 591/523/584 598/514/582 599/513/590
f 527/425/500 544/424/540 539/423/499
f 527/524/500 602/426/521 603/429/542 549/525/534
f 501/369/491 604/374/495 605/501/581 560/494/558
f 551/434/541 553/414/533 546/410/529 537/526/535
f 603/429/542 551/428/541 537/527/535
f 546/410/529 547/409/528 537/526/535
f 549/525/534 603/429/542 537/528/535
f 557/435/545 555/433/544 535/529/593
f 556/436/546 557/435/545 535/529/593
f 554/432/543 556/436/546 535/529/593
f 555/433/544 554/432/543 535/529/593
f 606/340/464 607/343/467 610/342/594 609/341/595
f 607/343/467 642/345/469 641/344/596 610/342/594
f 609/341/595 610/342/594 640/347/597 639/346/598
f 610/342/594 641/344/596 656/348/599 640/347/597
f 606/340/464 609/341/595 611/350/600 608/349/473
f 609/341/595 639/346/598 638/351/601 611/350/600
f 697/352/476 698/355/602 644/354/603 643/353/477
f 698/355/602 702/357/604 655/356/605 644/354/603
f 612/358/482 614/361/606 616/360/607 613/359/483
f 614/361/606 648/363/608 647/362/609 616/360/607
f 613/359/483 616/360/607 646/365/610 645/364/488
f 616/360/607 647/362/609 657/366/611 646/365/610
f 612/367/482 615/371/493 720/370/612 617/369/613 614/368/606
f 614/368/606 617/369/613 734/374/614 649/373/615 648/372/608
f 663/375/616 662/378/617 623/377/618 622/376/619
f 623/377/618 662/378/617 650/379/620
f 622/376/619 623/377/618 647/362/609 648/363/608
f 623/377/618 650/379/620 657/366/611 647/362/609
f 618/380/621 620/383/622 624/382/623 619/381/624
f 620/383/622 639/346/598 640/347/597 624/382/623
f 619/381/624 624/382/623 652/385/625 651/384/626
f 624/382/623 640/347/597 656/348/599 652/385/625
f 618/380/621 621/387/627 625/386/628 620/383/622
f 699/388/629 654/391/630 653/390/631 700/389/632
f 620/383/622 625/386/628 638/351/601 639/346/598
f 700/389/632 653/390/631 655/356/605 702/357/604
f 663/392/616 622/395/619 626/394/633 664/393/634
f 622/395/619 648/372/608 649/373/615 626/394/633
f 627/396/635 628/399/518 631/398/636 630/397/637
f 628/399/518 643/353/477 644/354/603 631/398/636
f 630/397/637 631/398/636 653/390/631 654/391/630
f 631/398/636 644/354/603 655/356/605 653/390/631
f 633/400/519 645/364/488 646/365/610 636/401/638
f 636/401/638 646/365/610 657/366/611 650/379/620 732/402/639
f 632/403/522 635/406/640 637/405/641 634/404/523
f 635/406/640 651/384/626 652/385/625 637/405/641
f 634/404/523 637/405/641 641/344/596 642/345/469
f 637/405/641 652/385/625 656/348/599 641/344/596
f 661/407/642 669/410/643 670/409/644 659/408/645
f 671/411/646 659/408/645 670/409/644 675/412/647
f 673/413/648 661/407/642 659/408/645 671/411/646
f 676/414/649 669/410/643 661/407/642 673/413/648
f 675/412/647 670/409/644 660/416/650 672/415/651
f 630/397/637 654/391/630 668/418/652 666/417/653
f 627/396/635 630/397/637 666/417/653 665/419/654
f 699/388/629 704/420/655 668/418/652 654/391/630
f 618/380/621 663/422/616 664/421/634 621/387/627
f 619/381/624 651/384/626 667/424/656 662/423/617
f 618/380/621 619/381/624 662/423/617 663/422/616
f 667/424/656 675/412/647 672/415/651 650/425/620
f 732/426/639 733/429/657 674/428/658 636/427/638
f 635/406/640 673/413/648 671/411/646 651/384/626
f 651/384/626 671/411/646 675/412/647 667/424/656
f 636/430/638 678/433/659 677/432/660 633/431/519
f 635/406/640 676/414/649 673/413/648
f 636/430/638 674/434/658 676/414/649 635/406/640
f 635/406/640 680/435/661 678/433/659 636/430/638
f 632/403/522 679/436/662 680/435/661 635/406/640
f 633/431/519 677/432/660 679/436/662 632/403/522
f 717/437/663 706/440/664 691/439/665 711/438/666
f 713/441/667 711/444/666 691/443/665 690/442/668
f 715/445/669 689/448/670 688/447/671 714/446/672
f 715/445/669 713/441/667 690/442/668 689/448/670
f 716/449/673 714/446/672 688/447/671 686/450/674
f 712/451/675 687/452/676 706/440/664 717/437/663
f 708/453/677 707/456/678 695/455/679 694/454/680
f 708/453/677 694/454/680 693/458/681 709/457/682
f 681/459/683 685/461/569 682/460/684
f 621/387/627 664/421/634 704/420/655 699/388/629
f 626/394/633 649/373/615 703/463/685 701/462/686
f 664/393/634 626/394/633 701/462/686 704/464/655
f 625/386/628 700/389/632 702/357/604 638/351/601
f 621/387/627 699/388/629 700/389/632 625/386/628
f 683/465/572 682/467/684 719/466/573
f 611/350/600 638/351/601 702/357/604 698/355/602
f 608/349/473 611/350/600 698/355/602 697/352/476
f 688/447/671 709/457/682 693/458/681 686/450/674
f 706/440/664 696/469/687 710/468/688 691/439/665
f 710/470/688 696/471/687 695/455/679 707/456/678
f 696/469/687 706/440/664 687/452/676 692/472/689
f 696/469/687 692/472/689 701/474/686 695/473/679
f 615/371/493 716/475/673 720/370/612
f 691/443/665 710/470/688 707/456/678 690/442/668
f 689/448/670 708/453/677 709/457/682 688/447/671
f 689/448/670 690/442/668 707/456/678 708/453/677
f 685/461/569 719/476/573 682/460/684
f 694/477/680 703/463/685 693/478/681
f 695/473/679 701/474/686 694/479/680
f 701/462/686 703/463/685 694/477/680
f 629/480/690 712/451/675 717/437/663 705/481/578
f 615/482/493 681/483/683 714/446/672 716/449/673
f 682/484/684 683/487/572 713/486/667 715/485/669
f 682/488/684 715/445/669 714/446/672 681/483/683
f 683/487/572 684/490/579 711/489/666 713/486/667
f 705/481/578 717/437/663 711/438/666 684/491/579
f 681/459/683 718/492/580 685/461/569
f 681/483/683 615/482/493 718/493/580
f 720/370/612 716/475/673 686/494/674 617/369/613
f 704/495/655 668/498/652 692/497/689 701/496/686
f 666/499/653 668/500/652 692/472/689 687/452/676
f 734/374/614 735/501/691 703/463/685 649/373/615
f 693/478/681 703/463/685 735/501/691 686/494/674
f 665/502/654 666/499/653 687/452/676 712/451/675 629/480/690
f 704/503/655 701/506/686 730/505/692 728/504/693
f 721/507/694 730/505/692 731/512/695 727/511/696 725/510/697 724/509/698 722/508/699
f 729/513/700 668/516/652 704/515/655 728/514/693
f 730/505/692 701/506/686 692/517/689 731/512/695
f 692/517/689 668/516/652 729/513/700 731/512/695
f 721/507/694 722/508/699 723/518/701
f 723/518/701 722/508/699 724/509/698
f 724/509/698 725/510/697 726/519/702
f 726/519/702 725/510/697 727/511/696
f 731/512/695 729/513/700 727/511/696
f 728/504/693 730/505/692 721/507/694
f 727/511/696 729/513/700 728/514/693 721/523/694 723/522/701 724/521/698 726/520/702
f 650/425/620 662/423/617 667/424/656
f 650/524/620 672/525/651 733/429/657 732/426/639
f 617/369/613 686/494/674 735/501/691 734/374/614
f 674/434/658 660/526/650 669/410/643 676/414/649
f 733/429/657 660/527/650 674/428/658
f 669/410/643 660/526/650 670/409/644
f 672/525/651 660/528/650 733/429/657
f 680/435/661 658/529/703 678/433/659
f 679/436/662 658/529/703 680/435/661
f 677/432/660 658/529/703 679/436/662
f 678/433/659 658/529/703 677/432/660
